<svg version="1.2" xmlns="http://www.w3.org/2000/svg" viewBox="0 0 1500 1500" width="700" height="700">
	<title>2526391-ai</title>
	<style>
		tspan { white-space:pre } 
		.s0 { fill: #45746a } 
		.s1 { fill: #6ace99 } 
		.s2 { fill: #aaf2c8 } 
		.s3 { fill: #58a07d } 
		.s4 { fill: #302b4f } 
		.s5 { fill: #bd9675 } 
		.s6 { fill: #f1c9a7 } 
		.s7 { fill: #96775e } 
		.s8 { opacity: .3;fill: #383838 } 
		.s9 { fill: #ededed } 
		.s10 { fill: #ceccd6 } 
		.s11 { fill: #87654e } 
		.s12 { fill: #a37b5d } 
		.s13 { fill: #a3a3a3 } 
		.s14 { fill: #1d2542 } 
		.s15 { fill: #d2d6ff } 
		.s16 { fill: #b1b5f5 } 
		.s17 { fill: #949ad3 } 
		.s18 { fill: #ffffff } 
		.s19 { fill: #383838 } 
		.s20 { fill: #8080ea } 
		.t21 { font-size: 10px;fill: #ffffff;font-weight: 400;font-style: italic;font-family: "Montserrat-Italic", "Montserrat" } 
		.s22 { fill: #929cf7 } 
		.s23 { opacity: .6;fill: #ffffff } 
		.s24 { fill: #f4f4f4 } 
		.s25 { fill: #272b35 } 
		.s26 { fill: #363b49 } 
		.s27 { fill: #f8b69c } 
		.s28 { fill: #9071af } 
		.s29 { fill: #f46e62 } 
		.s30 { fill: #cccbd1 } 
		.s31 { fill: #998a99 } 
		.s32 { fill: #48435e } 
		.s33 { fill: #9e663c } 
		.s34 { fill: #d1b3f4 } 
		.s35 { fill: #fcd2b4 } 
		.s36 { fill: #eabb9b } 
		.s37 { fill: #ee6fc8 } 
		.t38 { font-size: 15px;fill: #ffffff;font-weight: 400;font-style: italic;font-family: "Montserrat-Italic", "Montserrat" } 
		.s39 { fill: #50c8f9 } 
		.s40 { fill: #d8d8d8 } 
		.s41 { fill: #8faae5 } 
		.s42 { fill: #f8bd45 } 
		.s43 { opacity: .2;fill: #1d2542 } 
		.s44 { fill: #b7b6c1 } 
	</style>
	<g id="Objects">
		<g id="&lt;Group&gt;">
			<g id="&lt;Group&gt;">
				<g id="&lt;Group&gt;">
					<path id="&lt;Path&gt;" class="s0" d="m1479.5 1070.5c3.8 9-3.4 19-11.7 24.3c-8.2 5.3-18.1 8.4-24.6 15.8c-6.7 7.5-9.1 18.8-17.6 24.2c-9.1 5.8-21.5 2.5-31.4 6.7c-11.7 4.8-16.7 18.2-25.4 27.3c-7.2 7.5-16.9 12-26.4 16.4c-11 5-29.9-5-37 4.9c-17.1 23.8-47.1 34-71.9 36.1c-24.9 2.2-46.8-8.4-68.7-20.4c30.3-27.1 63.5-55.5 104-59.9c16.6-1.9 35.3-0.1 47.9-11.1c8.9-7.9 12.9-21.1 23.5-26.4c8.6-4.3 19-2.2 28.3-4.9c13.2-3.8 22.3-17.1 35.7-20c8.9-1.9 18.4 1.2 27.3-0.9c8.8-2 15.7-8.6 23.8-12.8c8-4.1 19.6-4.8 24.5 2.8" />
				</g>
				<g id="&lt;Group&gt;">
					<path id="&lt;Path&gt;" class="s1" d="m1377.9 966.3c6.8 6.3 4.6 17.7-0.4 25.5c-5 7.9-12.2 14.5-14.9 23.4c-2.8 9.1-0.4 19.8-5.5 27.8c-5.5 8.7-17.5 10.7-24.4 18.2c-8.1 8.8-7.1 22.4-11 33.6c-3.2 9.4-9.7 17.1-16.1 24.6c-7.5 8.7-27.7 7.6-29.9 18.9c-5.2 27.3-27 48-47.5 59.7c-20.5 11.7-43.6 11.3-67.2 9.8c15.4-35.4 32.6-73.1 65.6-93c13.6-8.1 30.4-14.1 36.8-28.5c4.6-10.3 2.7-23.3 9.8-32.1c5.6-7.1 15.5-9.4 22.3-15.4c9.8-8.5 12.4-23.6 22.8-31.4c6.9-5.2 16.2-6.3 23.1-11.6c6.8-5.2 10.1-13.7 15.3-20.4c5.3-6.8 15-12 22.2-7.4" />
				</g>
				<g id="&lt;Group&gt;">
					<g id="&lt;Group&gt;">
						<path id="&lt;Path&gt;" class="s2" d="m1175.5 1207.6c68.8-74.1 133-151.4 194.3-231.9c0.8-1.1 2.7 0 1.8 1.1c-59 81.7-125.1 159.4-195.5 231.5c-0.4 0.4-1-0.3-0.6-0.7z" />
					</g>
				</g>
				<g id="&lt;Group&gt;">
					<path id="&lt;Path&gt;" class="s3" d="m1317.8 793.9c11.7 4.6 14.6 20.1 12.2 32.4c-2.4 12.2-8.3 24.2-7.2 36.6c1 12.9 9.4 25.1 6.8 37.8c-2.7 13.5-16.7 22-21.7 34.9c-5.7 15.1 2.2 31.6 2.9 47.7c0.6 13.3-3.8 26.2-8.2 38.8c-5 14.7-31 23.3-28.1 38.6c6.9 36.9-10.3 73.6-30.2 98.5c-20 24.8-49.2 35.8-79.6 45.4c1.7-52 4.8-107.8 36.5-149.2c13-16.9 31.2-32.7 32.1-54.1c0.6-15.2-8.1-30.5-3.6-45.1c3.6-11.7 14.8-19.5 20.5-30.3c8.1-15.7 3.8-35.8 13-50.8c6.2-9.9 17.4-16 23.3-26c6-9.9 6-22.2 9.2-33.3c3.3-11.1 12.9-22.4 24.3-20.2" />
				</g>
				<g id="&lt;Group&gt;">
					<path id="&lt;Path&gt;" class="s0" d="m1162 881.5c8.9 0.6 14.2 10.5 15.2 19.4c1 8.8-0.5 18.2 2.9 26.4c3.5 8.5 11.7 15 12.7 24.2c1.1 9.7-6.7 18.5-7.2 28.3c-0.7 11.5 8.2 21 12.1 31.8c3.2 8.9 3 18.6 2.7 28c-0.3 11.1-16 22.5-10.9 32.2c12.6 23.6 8.8 52.2 0.6 73.3c-8.3 21.2-25.8 34.8-44.3 47.9c-10-35.7-19.8-74.2-7.1-109.1c5.2-14.3 14.2-28.9 10.2-43.5c-2.8-10.5-12-19.1-12.1-29.9c0-8.7 5.9-16.4 7.4-25c2.2-12.3-5-25.1-1.9-37.2c2-8.1 8.3-14.6 10.3-22.7c1.9-8-0.8-16.3-0.9-24.5c-0.1-8.2 4-18 12.1-18.9" />
				</g>
			</g>
			<g id="&lt;Group&gt;">
				<g id="&lt;Group&gt;">
					<path id="&lt;Path&gt;" class="s2" d="m1184.5 1208.4c104.4-18.2 188.4-91.4 286.7-126.8c0.9-0.4 1.5 1.1 0.6 1.5c-50.2 22.1-98 46.7-146.3 72.6c-44.7 23.9-90.5 45.3-140.8 53.6c-0.6 0.1-0.8-0.8-0.2-0.9z" />
				</g>
			</g>
			<g id="&lt;Group&gt;">
				<g id="&lt;Group&gt;">
					<path id="&lt;Path&gt;" class="s2" d="m1172 1197c41.5-58.2 70.9-124.1 85.2-194.2c7.4-36.2 12.3-73.2 26.8-107.4c13.4-31.2 32.2-59.7 38.6-93.6c0.3-1.4 2.4-0.8 2.2 0.7c-5.5 35.7-26.8 65.3-40.1 98.3c-13.9 34.6-18.5 71.9-26.4 108c-15.1 68.3-43.7 132.5-84.8 189.1c-0.7 0.8-2.1 0-1.5-0.9z" />
				</g>
			</g>
		</g>
		<g id="&lt;Group&gt;" style="opacity: .7">
			<path id="&lt;Path&gt;" class="s4" d="m1089.9 1258.1c-14.3 8.3-29 16-44 23.1c7.1 2.7 14 5.8 20.7 9.2c15.4 8 31.1 20.2 32.7 37.4c2 21.7-19.2 38.2-39.1 47.1c-73.9 33.3-165.1 24.3-231.1-22.7c-16.8 4.1-33.7 8.1-50.5 12c-59.6 13.9-121.4 27.9-181.5 16.2c-58.1-11.4-109.3-46-166.9-59.5c-30.1-7.1-61.2-8.2-91.9-12.5c-30.6-4.3-61.7-12.3-86.4-30.9c-24.7-18.6-42.8-18.5-37.2-48.9l6.9-12.7q187.7-51.2 375.4-102.5q113.2-30.9 226.5-61.8c43.7-11.9 89.3-24 134-16.1c56.7 10.1 102.6 50.4 145.2 89.1c20 18 41.5 39.6 41.1 66.5c-0.5 30-27.9 51.9-53.9 67z" />
		</g>
		<g id="&lt;Group&gt;">
			<g id="&lt;Group&gt;">
				<g id="&lt;Group&gt;">
					<path id="&lt;Path&gt;" class="s1" d="m195 549.7c9.1-1.8 17.1 6.6 20.5 15.2c3.5 8.7 4.6 18.4 10.3 25.8c5.8 7.5 15.9 11.8 19.4 20.7c3.8 9.5-1.6 20.4 0.5 30.4c2.5 11.7 14 18.8 20.9 28.6c5.7 8 8.2 17.8 10.5 27.4c2.7 11.1-9.9 26.9-2 35.3c19.1 20.2 23.1 49.9 20.7 73.4c-2.4 23.4-16.3 42-31.3 60.2c-19.8-33.1-40.3-69-37.1-107.5c1.2-15.7 6.3-32.9-1.8-46.5c-5.7-9.7-17.2-15.8-20.3-26.6c-2.5-8.8 1.4-18.1 0.5-27.2c-1.2-12.9-11.9-23.8-12.2-36.8c-0.1-8.6 4.4-16.9 4.1-25.5c-0.3-8.6-5.2-16.2-7.6-24.4c-2.4-8.2-1-19.1 6.9-22.4" />
				</g>
				<g id="&lt;Group&gt;">
					<g id="&lt;Group&gt;">
						<path id="&lt;Path&gt;" class="s2" d="m286.5 828.6c-29.1-90.1-60.5-179.8-87.3-270.6c-0.3-1.1 1.3-1.5 1.7-0.5c31.3 89.4 58.3 180.5 87.4 270.7c0.3 1.1-1.4 1.5-1.8 0.4z" />
					</g>
				</g>
				<g id="&lt;Group&gt;">
					<path id="&lt;Path&gt;" class="s3" d="m53.3 506.9c10.8-6.3 24.8 1 32.9 10.5c8.2 9.5 13.9 21.5 24.3 28.4c10.8 7.1 25.5 8.2 33.9 18c9 10.5 6.9 26.8 14 38.7c8.2 13.8 26.1 17.9 39.2 27.3c10.7 7.8 18.2 19.3 25.3 30.5c8.4 13.1-0.9 38.7 12.9 46c33.2 17.4 51.4 53.7 58.5 84.7c7.1 31.1-2.4 60.9-13.6 90.7c-39.8-33.7-81.7-70.6-94.5-121.1c-5.3-20.8-6.3-44.8-22.5-58.8c-11.6-9.9-29-12.6-37.7-25.1c-6.9-10.1-6.1-23.7-11.1-34.9c-7.2-16.1-25.7-25.2-31.7-41.7c-4-11-1.8-23.5-6-34.5c-4.1-10.8-13.7-18.4-20.4-27.8c-6.7-9.5-9.6-24-0.8-31.6" />
				</g>
				<g id="&lt;Group&gt;">
					<path id="&lt;Path&gt;" class="s0" d="m25.4 683.5c6-6.6 17.1-4.6 24.6 0.1c7.6 4.7 14 11.6 22.6 14c8.8 2.6 19.1 0.2 26.8 5c8.4 5.3 10.4 16.8 17.8 23.3c8.5 7.6 21.5 6.6 32.4 10.2c9 3 16.5 9.2 23.7 15.3c8.5 7 7.7 26.5 18.6 28.4c26.2 4.8 46.3 25.5 57.8 45.1c11.5 19.5 11.3 41.8 10.1 64.4c-34.2-14.3-70.5-30.5-90-62c-8-13-13.9-29.1-27.8-35.1c-10-4.3-22.4-2.4-30.9-9c-6.9-5.4-9.2-14.8-15.1-21.3c-8.3-9.4-22.8-11.7-30.4-21.6c-5-6.6-6.2-15.5-11.4-22.1c-5.1-6.4-13.2-9.5-19.8-14.5c-6.5-5-11.6-14.3-7.3-21.3" />
				</g>
				<g id="&lt;Group&gt;">
					<g id="&lt;Group&gt;">
						<path id="&lt;Path&gt;" class="s2" d="m34 679.5c42.9 33.4 84.6 68.5 126.7 102.9c35.5 29.1 79.3 57.1 105.1 95.8c0.3 0.5-0.5 1-0.9 0.5c-29.2-39.3-72.4-68-110-98.8c-40.6-33.2-81.5-65.9-121.3-100c-0.3-0.3 0.1-0.6 0.4-0.4z" />
					</g>
				</g>
			</g>
			<g id="&lt;Group&gt;">
				<g id="&lt;Group&gt;">
					<path id="&lt;Path&gt;" class="s2" d="m279.7 832.3c-17-31-33.6-62.4-54.4-91c-18.9-26.2-41.6-49.3-62.7-73.7c-19.7-22.8-36.7-46.6-50.2-73.7c-15.3-30.8-29.6-61.9-59.1-81.8c-0.9-0.7-0.1-2.2 1-1.6c26.4 16.1 40.9 43.5 54.2 70.5c15.3 31.2 32.8 58.8 55.6 85.1c20.7 23.8 42.7 46.4 61.3 71.9c21.4 29.3 38.7 61.4 55.6 93.5c0.4 0.8-0.8 1.6-1.3 0.8z" />
				</g>
			</g>
		</g>
		<g id="&lt;Group&gt;">
			<path id="&lt;Path&gt;" class="s5" d="m1195.6 772l4.6 22.8l-689 199l-283.3-109.8v-27.4z" />
			<path id="&lt;Path&gt;" class="s6" d="m941.9 671.6l253.7 100.4l-685.8 195l-281.7-111.3z" />
			<g id="&lt;Group&gt;" style="opacity: .3">
				<g id="&lt;Group&gt;">
					<g id="&lt;Group&gt;">
						<path id="&lt;Path&gt;" class="s7" d="m272 904.7c-3.7-17.8 6.5-33 20.8-42.8c23.2-15.8 54.2-18.1 69.8-44c0.6-1.1 2.4-0.1 1.7 1c-21 35.1-98.9 34-90.7 85.3c0.1 1.1-1.4 1.5-1.6 0.5z" />
					</g>
				</g>
				<g id="&lt;Group&gt;">
					<g id="&lt;Group&gt;">
						<path id="&lt;Path&gt;" class="s7" d="m312.2 916.8c43-28.8 119.3-47.2 116.1-112.4c-0.1-1.2 1.7-1.2 1.8 0c3.4 65.4-73.7 85.3-117.3 113.4c-0.7 0.5-1.2-0.6-0.6-1z" />
					</g>
				</g>
				<g id="&lt;Group&gt;">
					<g id="&lt;Group&gt;">
						<path id="&lt;Path&gt;" class="s7" d="m350.9 935c72.8-96.8 202.2-127.5 300.7-189.4c1.1-0.7 2.1 1 1 1.7c-101 64.2-220.8 94.1-301.1 188.1c-0.3 0.3-0.8-0.1-0.6-0.4z" />
					</g>
				</g>
				<g id="&lt;Group&gt;">
					<g id="&lt;Group&gt;">
						<path id="&lt;Path&gt;" class="s7" d="m965.4 684.7c-23.8 32.5-60.2 51.7-98 63.5c-42.8 13.5-87.8 17.3-131.4 27.6c-45.3 10.7-84.6 34.1-127.8 50.3c-41.9 15.7-88.2 14.5-129.3 32.1c-40.1 17.2-69.8 52.4-81.5 94.1c-0.3 1-1.9 0.6-1.6-0.4c10.9-38.3 36.6-71.4 71.9-90.2c37.9-20.2 82-19.7 122.4-31.4c43.9-12.7 82.6-38.5 126.5-51.3c84.4-24.5 188.6-18.4 247.7-95c0.5-0.6 1.5 0 1.1 0.7z" />
					</g>
				</g>
				<g id="&lt;Group&gt;">
					<g id="&lt;Group&gt;">
						<path id="&lt;Path&gt;" class="s7" d="m433.6 961.1c-3.5-38.3 18.4-76.2 52.5-93.7c40.5-20.7 84-1.1 126 1.2c54 2.9 99.3-29.6 143.4-56c43.7-26 89.9-38.1 139-49.7c51.3-12.2 101-28.9 148.9-50.8c1.1-0.5 2.1 1.1 1 1.6c-48.1 22.1-97.9 38.9-149.4 51.1c-49.8 11.8-96.5 24.5-141 50.8c-36.4 21.5-72.8 47-115.7 53.1c-46.2 6.5-93.1-20.4-138.5-5.8c-41.3 13.3-68.4 55.4-65.4 98.2c0.1 0.5-0.7 0.5-0.8 0z" />
					</g>
				</g>
				<g id="&lt;Group&gt;">
					<g id="&lt;Group&gt;">
						<path id="&lt;Path&gt;" class="s7" d="m1065.2 722.2c-13 38.5-69.6 38.9-102.6 41.4c-51.4 4-102.7 5.8-149.2 30.7c-39.4 21-72.6 51.6-111.4 73.5c-78.9 44.5-193.3 29.1-252.6 106.9c-0.7 0.9-2-0.1-1.3-1c28-35.5 70-52.8 112.6-63.7c47-11.9 95.5-18.3 138.5-42.1c37.7-20.8 69.8-50 107.2-71.2c39.1-22.3 81.8-29.2 126.2-32.4c25.4-1.9 50.9-3 76-7.2c22.4-3.7 47.6-11.6 56.1-35.1c0.1-0.3 0.7-0.2 0.5 0.2z" />
					</g>
				</g>
				<g id="&lt;Group&gt;">
					<g id="&lt;Group&gt;">
						<path id="&lt;Path&gt;" class="s7" d="m678.8 740c-6.4 5.3-67.9 45.9-39.3 53.3c12 3.1 27.7-5.3 37.8-10.8c18.9-10.3 35.5-23.5 56.1-30.4c38.7-12.9 80.7-9.7 119.6-22.4c34.3-11.1 66-29.9 89.5-57.5c0.7-0.8-0.5-2.1-1.2-1.2c-21.7 25.6-50.3 43.6-81.9 54.9c-30.5 11-62.1 12.8-93.9 17.4c-30.3 4.5-53.2 16.1-79 31.9c-7.2 4.4-14.4 8.6-22.3 11.7c-4.2 1.7-8.3 3.3-12.8 4.2q-4 0.5-8 1q-3.4-7.2-6.8-14.4c0.7-4.3 17-14.7 20.6-17.8c7.4-6.4 14.8-12.8 22.2-19.3c0.4-0.3-0.2-0.9-0.6-0.6z" />
					</g>
				</g>
				<g id="&lt;Group&gt;">
					<g id="&lt;Group&gt;">
						<path id="&lt;Path&gt;" class="s7" d="m620.8 849c30.2 10.6 55.7-9.6 78.2-27.2c8.2-6.5 16.4-13 25.6-17.9c3-1.6 6.2-3.2 9.4-4.5q4.8-1.9 9.8-3.1q-1.2-12-10.1-9.2c-10.5-1.1-24.2 5.9-33.8 9.7c-13.1 5.1-25.8 11.2-38.3 17.8c-5.5 2.8-10.9 5.8-16.3 8.9q-3.5 1.9-6.9 3.9q-0.7 14.6 8.6 8.7c12-0.6 27.7-12.5 37.6-18.6c0.7-0.5 1.4 0.7 0.7 1.1q-13.2 9-27.9 15.2c-4.8 2-17.1 8.8-22.8 6c-5.5-2.7-4-6.7-0.9-10.8c4-5.5 16.6-10.1 22.4-13.3c9.4-5 18.9-9.8 28.6-14.2c15-6.7 32.3-14.9 48.9-16c3.9-0.3 16.9-0.8 17.9 5.5c0.5 3.3-1.8 3.8-3.9 5.4c-4.9 3.8-14.4 4.6-20.1 7.4c-4.6 2.4-9 5.1-13.2 8.1c-27.9 19.2-56.3 51.6-93.7 37.5c-0.3-0.1-0.1-0.5 0.2-0.4z" />
					</g>
				</g>
				<g id="&lt;Group&gt;">
					<g id="&lt;Group&gt;">
						<path id="&lt;Path&gt;" class="s7" d="m562.9 980.6c6.6-40.7 47.7-58.5 83.7-66.8c21.4-4.9 43-8.4 63.7-16c20.3-7.6 39.5-17.8 58-28.9c35.4-21.2 69-45.8 106.8-62.9c77.2-34.8 167.3-24.5 242.1-65.7c1.3-0.7 2.4 1.2 1.2 1.9c-44.4 24.6-94.7 31-144 39.2c-26.4 4.4-52.8 9.4-78.1 18.4c-24.4 8.7-47.1 21.2-69.2 34.6c-41.2 25.1-81.2 54.4-127.8 68.8c-48 14.9-124.4 14.8-136 77.5c0 0.3-0.4 0.2-0.4-0.1z" />
					</g>
				</g>
				<g id="&lt;Group&gt;">
					<g id="&lt;Group&gt;">
						<path id="&lt;Path&gt;" class="s7" d="m803.7 914c0.4-29.3 23.8-48.2 47.5-61.1c29.5-16.2 61.4-27.9 93.7-37.2c35.3-10.2 71.3-17.5 107.3-24.5c35.3-6.9 75.4-10.2 104.2-33.7c0.9-0.8 2.3 0.6 1.3 1.4c-22.6 18.3-50.8 23.5-78.6 28.9c-32.6 6.3-65.2 12.3-97.5 20c-34.5 8.3-68.8 18.4-101.3 32.7c-32.5 14.3-72.2 33.4-75.1 73.5c-0.1 0.9-1.5 1-1.5 0z" />
					</g>
				</g>
				<g id="&lt;Group&gt;">
					<g id="&lt;Group&gt;">
						<path id="&lt;Path&gt;" class="s7" d="m889.6 882.5c27.7-37.1 71.6-62.6 116.8-71.7c56.5-11.4 119.9 11.8 170.3-23.9c0.9-0.7 1.7 0.7 0.9 1.4c-43.5 32.9-100.4 16.7-150.3 21.1c-54.8 4.9-101.3 33-136.8 73.8c-0.4 0.5-1.3-0.1-0.9-0.7z" />
					</g>
				</g>
			</g>
		</g>
		<g id="&lt;Group&gt;">
			<path id="&lt;Path&gt;" class="s8" d="m893.8 739.4c9.3 8.6 26.4 32.9 26.5 36.3c0.1 3.3-12.6 17.7-21.7 18c-5 0.2-24-19.4-31.8-30c-0.4-0.5-0.8-0.9-1.2-1.3c-7-8.3-3.5-21.1 6.3-25.9c9.7-4.8 16.7-2.1 21.9 2.9z" />
			<g id="&lt;Group&gt;">
				<path id="&lt;Path&gt;" class="s9" d="m899.9 733.6c9.3 8.6 26.4 32.9 26.5 36.3c0.1 3.3-12.7 17.7-21.7 18c-5 0.2-24-19.4-31.8-30c-0.4-0.5-0.8-0.9-1.2-1.3c-7-8.4-3.5-21.1 6.3-25.9c9.7-4.8 16.6-2.1 21.9 2.9z" />
				<g id="&lt;Group&gt;">
					<path id="&lt;Path&gt;" class="s10" d="m881.7 737.4c1.5-1 3.6-0.7 5.1 0.3c1.5 1.1 2.6 2.6 3.5 4.2c0.4 0.6 0.9 1.2 0.8 2c0 0.7-0.8 1.4-1.5 1.1c-0.2-0.1-0.3-0.3-0.5-0.5c-2.2-2.6-5.1-4.5-7.3-7.2" />
				</g>
				<g id="&lt;Group&gt;">
					<g id="&lt;Group&gt;">
						<path id="&lt;Path&gt;" class="s10" d="m925.6 768.2c0.1 6.1-3.6 12.3-9 15c-5.7 2.9-18.3 1.3-23.7-2.3c-4.9-3.3-9.6-9.1-13.5-13.5c-9.3-10.6-17.5-31.8 3.5-37.1c6-1.5 11.2 0 15.8 3.7c6.9 5.6 11.8 13.7 17 20.8c3.3 4.4 7.3 8.9 9.6 13.8c0.4 0.9 1.9 0.3 1.6-0.6c-4.6-11.3-15.7-23.3-23.6-32.3c-8.7-10.1-25.3-11.2-33 1.4c-11 17.8 12.5 40.1 26 48.7c11.9 7.4 31.9-2.9 30.2-17.6c-0.1-0.6-0.9-0.6-0.9 0z" />
					</g>
				</g>
			</g>
		</g>
		<g id="&lt;Group&gt;">
			<path id="&lt;Path&gt;" class="s11" d="m907.2 954.5l17.6-35l155.6 59.5l24.3 48.9l-179.9-70.3z" />
			<path id="&lt;Path&gt;" class="s12" d="m1042.9 822.1l147.4 418.1l-38.4 6l-154.7-436.6z" />
			<path id="&lt;Path&gt;" class="s11" d="m997.2 809.6l6.7 19l-158.3 267.2h-41.4l171-294.7z" />
		</g>
		<g id="&lt;Group&gt;">
			<g id="&lt;Group&gt;">
				<path id="&lt;Path&gt;" class="s8" d="m607.4 835.4c30.2-9.4 199.3-66 220.1-73c1.3-0.5 2.7 0 3.5 1l46.9 60c1.4 1.7 0.6 4.2-1.5 4.9l-216.4 73.7c-1.3 0.4-2.6 0.1-3.5-1l-50.6-60.5c-1.4-1.7-0.7-4.4 1.5-5.1z" />
				<path id="&lt;Path&gt;" class="s10" d="m607.7 824.9l273.9-10c1 0.3 1 1.7 1 3.4c0 1.3-0.8 2.4-2.1 2.8l-218.8 75.4c-1.2 0.4-2.5 0-3.3-0.9l-52.9-62c-0.5-0.5-0.8-1.2-0.8-1.9v-3.8c0-1.6 1.3-2.9 3-3z" />
				<path id="&lt;Path&gt;" class="s9" d="m604.7 825q2.8 0 226.9-75.1l51 65.3l-222.8 75.8z" />
				<path id="&lt;Path&gt;" class="s10" d="m633.1 823.2l2.5 3.4l-12 4.6l-3.3-3.7z" />
				<path id="&lt;Path&gt;" class="s10" d="m650.4 816.4l2.6 3.4l-11.8 4.7l-3.4-3.5z" />
				<path id="&lt;Path&gt;" class="s10" d="m669.2 810.2l2.6 3.4l-11.8 4.8l-3.5-3.6z" />
				<path id="&lt;Path&gt;" class="s10" d="m688 804l2.6 3.5l-11.9 4.7l-3.4-3.6z" />
				<path id="&lt;Path&gt;" class="s10" d="m706.8 797.9l2.6 3.4l-11.9 4.7l-3.4-3.5z" />
				<path id="&lt;Path&gt;" class="s10" d="m725.6 791.7l2.6 3.4l-11.9 4.8l-3.4-3.6z" />
				<path id="&lt;Path&gt;" class="s10" d="m744.4 785.6l2.6 3.4l-11.9 4.7l-3.4-3.5z" />
				<path id="&lt;Path&gt;" class="s10" d="m763.2 779.4l2.6 3.4l-11.9 4.8l-3.4-3.6z" />
				<path id="&lt;Path&gt;" class="s10" d="m782 773.2l2.5 3.4l-11.8 4.8l-3.4-3.6z" />
				<path id="&lt;Path&gt;" class="s10" d="m800.8 767.1l2.5 3.4l-11.8 4.7l-3.4-3.5z" />
				<path id="&lt;Path&gt;" class="s10" d="m819.6 760.9l2.5 3.4l-11.8 4.8l-3.4-3.6z" />
				<g id="&lt;Group&gt;">
					<path id="&lt;Path&gt;" class="s10" d="m645.7 841.7l-10.3 4.5l-5.9-8.1l10.1-4.1z" />
					<path id="&lt;Path&gt;" class="s10" d="m662.1 835.2l-10.3 4.5l-5.9-8.1l10.2-4.2z" />
					<path id="&lt;Path&gt;" class="s10" d="m680.7 830.1l-10.5 4.1l-5.6-8.3l10.3-3.8z" />
					<path id="&lt;Path&gt;" class="s10" d="m697.3 824.2l-10.4 4.1l-5.6-8.3l10.3-3.8z" />
					<path id="&lt;Path&gt;" class="s10" d="m714 818.3l-10.4 4.1l-5.6-8.3l10.3-3.8z" />
					<path id="&lt;Path&gt;" class="s10" d="m730.7 812.4l-10.4 4.2l-5.7-8.4l10.3-3.8z" />
					<path id="&lt;Path&gt;" class="s10" d="m747.4 806.5l-10.5 4.2l-5.6-8.4l10.3-3.7z" />
					<path id="&lt;Path&gt;" class="s10" d="m764.1 800.6l-10.5 4.2l-5.6-8.4l10.3-3.7z" />
					<path id="&lt;Path&gt;" class="s10" d="m782.8 794.7l-10.4 4.1l-5.7-8.4l10.3-3.7z" />
					<path id="&lt;Path&gt;" class="s10" d="m801.5 788.7l-10.4 4.1l-5.6-8.3l10.3-3.8z" />
					<path id="&lt;Path&gt;" class="s10" d="m820.3 782.8l-10.5 4.1l-5.6-8.4l10.3-3.7z" />
					<path id="&lt;Path&gt;" class="s10" d="m839 776.8l-10.4 4.1l-5.6-8.4l10.3-3.7z" />
				</g>
				<g id="&lt;Group&gt;">
					<path id="&lt;Path&gt;" class="s10" d="m655.1 852.5l-10.3 4.5l-5.9-8.1l10.1-4.2z" />
					<path id="&lt;Path&gt;" class="s10" d="m671.5 846l-10.2 4.5l-6-8.2l10.2-4.1z" />
					<path id="&lt;Path&gt;" class="s10" d="m690.1 840.9l-10.5 4.1l-5.6-8.4l10.3-3.7z" />
					<path id="&lt;Path&gt;" class="s10" d="m706.8 835l-10.5 4.1l-5.6-8.4l10.3-3.7z" />
					<path id="&lt;Path&gt;" class="s10" d="m723.4 829.1l-10.4 4.1l-5.6-8.3l10.3-3.8z" />
					<path id="&lt;Path&gt;" class="s10" d="m740.1 823.2l-10.4 4.1l-5.7-8.3l10.4-3.8z" />
					<path id="&lt;Path&gt;" class="s10" d="m756.8 817.3l-10.5 4.1l-5.6-8.3l10.3-3.8z" />
					<path id="&lt;Path&gt;" class="s10" d="m773.5 811.4l-10.5 4.1l-5.6-8.3l10.3-3.8z" />
					<path id="&lt;Path&gt;" class="s10" d="m792.2 805.5l-10.4 4.1l-5.7-8.4l10.4-3.7z" />
					<path id="&lt;Path&gt;" class="s10" d="m811 799.5l-10.5 4.1l-5.6-8.4l10.3-3.7z" />
					<path id="&lt;Path&gt;" class="s10" d="m829.7 793.5l-10.4 4.2l-5.7-8.4l10.3-3.8z" />
					<path id="&lt;Path&gt;" class="s10" d="m848.4 787.6l-10.4 4.1l-5.6-8.4l10.3-3.7z" />
				</g>
				<g id="&lt;Group&gt;">
					<path id="&lt;Path&gt;" class="s10" d="m665.3 864.3l-10.3 4.5l-5.9-8.2l10.1-4.1z" />
					<path id="&lt;Path&gt;" class="s10" d="m681.7 857.7l-10.2 4.6l-6-8.2l10.2-4.1z" />
					<path id="&lt;Path&gt;" class="s10" d="m700.3 852.7l-10.5 4.1l-5.6-8.4l10.3-3.7z" />
					<path id="&lt;Path&gt;" class="s10" d="m716.9 846.8l-10.4 4.1l-5.6-8.4l10.3-3.7z" />
					<path id="&lt;Path&gt;" class="s10" d="m733.6 840.9l-10.4 4.1l-5.6-8.4l10.3-3.7z" />
					<path id="&lt;Path&gt;" class="s10" d="m750.3 835l-10.4 4.1l-5.7-8.4l10.4-3.7z" />
					<path id="&lt;Path&gt;" class="s10" d="m767 829.1l-10.5 4.1l-5.6-8.4l10.3-3.7z" />
					<path id="&lt;Path&gt;" class="s10" d="m783.7 823.2l-10.5 4.1l-5.6-8.4l10.3-3.7z" />
					<path id="&lt;Path&gt;" class="s10" d="m802.4 817.2l-10.4 4.1l-5.7-8.3l10.4-3.8z" />
					<path id="&lt;Path&gt;" class="s10" d="m821.2 811.3l-10.5 4.1l-5.6-8.4l10.3-3.7z" />
					<path id="&lt;Path&gt;" class="s10" d="m839.9 805.3l-10.4 4.1l-5.7-8.4l10.3-3.7z" />
					<path id="&lt;Path&gt;" class="s10" d="m858.6 799.3l-10.4 4.2l-5.6-8.4l10.3-3.7z" />
				</g>
				<g id="&lt;Group&gt;">
					<path id="&lt;Path&gt;" class="s10" d="m674.5 875.9l-10.3 4.6l-5.9-8.2l10.1-4.1z" />
					<path id="&lt;Path&gt;" class="s10" d="m690.9 869.4l-10.3 4.5l-5.9-8.1l10.2-4.2z" />
					<path id="&lt;Path&gt;" class="s10" d="m709.5 864.3l-10.5 4.2l-5.6-8.4l10.3-3.8z" />
					<path id="&lt;Path&gt;" class="s10" d="m726.1 858.4l-10.4 4.2l-5.6-8.4l10.3-3.7z" />
					<path id="&lt;Path&gt;" class="s10" d="m742.8 852.5l-10.4 4.2l-5.6-8.4l10.3-3.7z" />
					<path id="&lt;Path&gt;" class="s10" d="m759.5 846.7l-10.4 4.1l-5.7-8.4l10.3-3.7z" />
					<path id="&lt;Path&gt;" class="s10" d="m776.2 840.8l-10.5 4.1l-5.6-8.4l10.3-3.7z" />
					<path id="&lt;Path&gt;" class="s10" d="m792.9 834.9l-10.5 4.1l-5.6-8.4l10.3-3.7z" />
					<path id="&lt;Path&gt;" class="s10" d="m811.6 828.9l-10.4 4.1l-5.7-8.4l10.3-3.7z" />
					<path id="&lt;Path&gt;" class="s10" d="m830.3 822.9l-10.4 4.2l-5.6-8.4l10.3-3.8z" />
					<path id="&lt;Path&gt;" class="s10" d="m849.1 817l-10.5 4.1l-5.6-8.4l10.3-3.7z" />
					<path id="&lt;Path&gt;" class="s10" d="m867.8 811l-10.4 4.1l-5.6-8.4l10.3-3.7z" />
				</g>
			</g>
			<g id="&lt;Group&gt;">
				<g id="&lt;Group&gt;">
					<path id="&lt;Path&gt;" class="s13" d="m831.8 750.8q-58.1 19.2-116.2 38.5q-35.4 11.7-70.8 23.4q-12.7 4.2-25.3 8.4c-3.1 1-11 2-13.4 4.4c-6.5 6.7 20.3 31.1 24.7 36.2c8 9.3 16 18.5 24.2 27.6c6.7 7.6 6.7 6.4 16.7 2.8c69.2-24.8 139.1-47.9 208.6-71.8c1.1-0.4 1.6 1.3 0.5 1.7q-27.1 9.3-54.2 18.7c-50.5 17.3-101 34.5-151.3 52.1c-4.2 1.4-11.4 6.2-14.9 5c-6.6-2.4-14.7-16.2-19.1-21.3c-10.1-11.5-20.1-23.2-30.1-34.8c-6.1-7.1-7.4-7.4-7.4-16.7c0-0.4 0.3-0.7 0.7-0.9q113.4-37.5 226.8-75.1c1.1-0.3 1.6 1.4 0.5 1.8z" />
				</g>
			</g>
			<g id="&lt;Group&gt;">
				<g id="&lt;Group&gt;">
					<path id="&lt;Path&gt;" class="s13" d="m605.9 823.3c18.4 20.8 36.5 42.1 53.9 63.8c0.6 0.7-0.4 1.7-1 1c-18.3-20.9-36.2-42.4-53.5-64.2c-0.3-0.4 0.2-1 0.6-0.6z" />
				</g>
			</g>
		</g>
		<path id="&lt;Path&gt;" class="s5" d="m424.1 874.3c0 3.4-10.9 6.2-24.4 6.2c-13.4 0-24.3-2.8-24.3-6.2c0-3.4 10.9-6.1 24.3-6.1c13.5 0 24.4 2.7 24.4 6.1z" />
		<g id="&lt;Group&gt;">
			<g id="&lt;Group&gt;">
				<path id="&lt;Path&gt;" class="s14" d="m582 740.4c10.9 10.4 14 26.3 4.6 38.9c-13.8 18.6-39.3 10.4-58.8 10c-28-0.4-58.9 4.6-82 21.6c-22.4 16.4-37.6 42.6-41.8 69.9c-0.2 1.7-2.8 1-2.5-0.7c5.5-35.9 29.4-68.6 63.2-82.6c19.1-7.9 39.9-11 60.5-10.9c12.2 0.1 24.8 3.2 36.8 2.4c25.5-1.6 37.5-28.8 19.2-47.8c-0.5-0.6 0.3-1.3 0.8-0.8z" />
			</g>
		</g>
		<g id="&lt;Group&gt;">
			<path id="&lt;Path&gt;" class="s11" d="m312.8 1095.8l17.6-35l155.5 59.5l24.4 48.9l-179.9-70.3z" />
			<path id="&lt;Path&gt;" class="s12" d="m450.6 969.4l145.3 412.1l-38.4 6l-154.8-436.6z" />
			<path id="&lt;Path&gt;" class="s11" d="m402.7 950.9l6.8 18.9l-158.4 267.3h-41.4l171-294.7z" />
		</g>
		<g id="&lt;Group&gt;">
			<g id="&lt;Group&gt;">
				<path id="&lt;Path&gt;" class="s15" d="m576.6 870.1c8.9 20.7-18.1 35.3-42.5 38.7c-23 3.1-56.3 0.6-64.7-16.4q-8.4-17 35.2-31.2q63.1-11.8 72 8.9z" />
				<path id="&lt;Path&gt;" class="s16" d="m499.8 806.4c22.9-6.1 37.9-1 46.2 4.1c5.3 3.2 8.4 9 8.4 15.2l-3.7 55.5c-19.1 15.1-39.5 10.4-46.7 7.9c-1.7-0.5-7.2-6-7.9-7.7l-18.3-47.5q-2.5-21.1 22-27.5z" />
				<g id="&lt;Group&gt;">
					<g id="&lt;Group&gt;">
						<path id="&lt;Path&gt;" class="s16" d="m552 823.8c12.7-7.3 26.3 4 25 17.8c-1.1 12.2-13.8 25.3-26.4 19c-4.3-2.2-0.5-8.6 3.8-6.5c7.2 3.6 13.9-6.1 15-12.1c1.4-7.9-5.6-16.3-13.6-11.7c-4.3 2.4-8-4.1-3.8-6.5z" />
					</g>
				</g>
				<g id="&lt;Group&gt;">
					<path id="&lt;Path&gt;" class="s5" d="m548.7 824.1c-1.4 4.3-4.5 8-8.4 10.2c-4 2.1-8.5 3.1-12.9 3.8c-12.2 1.8-24.8 1.5-36.9-0.8c-2.5-0.5-5-1.2-6.9-2.9c-3-2.7-3.2-7.5-1.4-11.1c1.8-3.6 5.1-6.2 8.6-8.2c16.8-10 41.6-8.7 54.5-0.4q5.2 3.7 3.4 9.4z" />
				</g>
				<g id="&lt;Group&gt;">
					<g id="&lt;Group&gt;">
						<path id="&lt;Path&gt;" class="s17" d="m480.9 830.9c-4-14.2 15.5-21 26.3-23.1c12.9-2.5 32.9-1.7 41.1 10.4c0.6 0.8-0.8 1.9-1.4 1.1c-7-8.9-20.7-10.9-31.4-10.4c-10.7 0.5-35.6 5.6-33.3 21.7c0.2 0.8-1.1 1.2-1.3 0.3z" />
					</g>
				</g>
				<g id="&lt;Group&gt;">
					<g id="&lt;Group&gt;">
						<path id="&lt;Path&gt;" class="s17" d="m550.9 881.4c-11 8.9-25.4 14.3-39.6 11.5c-16.4-3.1-17.4-17.7-22.8-31.7c-4.1-10.7-14.6-25.8-11.1-37.8c3.1-10.5 12.5-15.5 22.5-18c17.5-4.5 52.6-5.4 55.3 19.2c1.9 17.5-2.2 38.9-3.8 56.6c-0.1 0.9-1.5 0.9-1.5 0c0.4-9.6 1.3-19.2 2.1-28.8c1.6-20.2 5.6-41.8-20.4-46.7c-12.9-2.4-30.3-1.4-41.9 5.2c-13.3 7.5-12.1 17.3-7.6 29.1c4.9 12.8 8.5 30.1 16 41.6c12.5 19.1 37.4 8.4 52.4-0.7c0.3-0.2 0.7 0.3 0.4 0.5z" />
					</g>
				</g>
				<g id="&lt;Group&gt;">
					<g id="&lt;Group&gt;">
						<path id="&lt;Path&gt;" class="s14" d="m506.2 849.4c0.6 1.4 1 2.9 1.5 4.4c0.3 1.3 0.8 2.5 0.6 3.9c-0.1 0.8-1.3 0.7-1.7 0.2c-0.8-1.1-0.9-2.8-1.2-4.1c-0.3-1.4-0.5-2.8-0.7-4.2c-0.1-0.9 1.2-0.9 1.5-0.2z" />
					</g>
				</g>
				<g id="&lt;Group&gt;">
					<g id="&lt;Group&gt;">
						<path id="&lt;Path&gt;" class="s14" d="m514.6 848.4c0.6 1.5 1.1 2.8 1.5 4.4c0.3 1.2 0.7 2.5 0.4 3.8c-0.1 0.8-1.3 0.9-1.7 0.3c-0.6-1.3-0.6-2.8-0.8-4.2c-0.2-1.4-0.3-2.7-0.5-4.1c-0.1-0.7 0.9-0.7 1.1-0.2z" />
					</g>
				</g>
				<g id="&lt;Group&gt;">
					<g id="&lt;Group&gt;">
						<path id="&lt;Path&gt;" class="s14" d="m499.7 858.4c3.3 4.2 7.6 8.2 13.4 6.9c6.2-1.3 9.1-6.7 9.2-12.6c0-1.3 2.1-1.7 2.4-0.3c1.1 6.9-3.3 13.7-10.2 15.2c-6.4 1.4-14.2-1.9-15.3-8.9c-0.1-0.2 0.3-0.6 0.5-0.3z" />
					</g>
				</g>
				<g id="&lt;Group&gt;">
					<g id="&lt;Group&gt;">
						<path id="&lt;Path&gt;" class="s17" d="m490.3 865.6c-10.3 5-23.9 13.9-20.9 27.7c2.6 12 31.3 15.6 40.5 16.3c12.4 0.9 25.6 0.4 37.5-3.3c14-4.4 45.7-26.9 22.2-43.6c-1.3-1-0.1-3.2 1.3-2.3c12.5 8.2 10 23.2 1 33.3c-14.5 16.5-38.9 19.2-59.4 18.1c-13.9-0.7-42-3.8-46.6-20.7c-3.5-12.9 14.9-21.8 24.1-26.1c0.3-0.2 0.7 0.4 0.3 0.6z" />
					</g>
				</g>
				<g id="&lt;Group&gt;" style="opacity: .2">
					<g id="&lt;Group&gt;">
						<path id="&lt;Path&gt;" class="s14" d="m482.7 831c4.6-14.1 19.4-19.4 33-19.7c10.5-0.3 27.4 1.3 29.8 14.5c0.4 1.6 3.1 1.2 3-0.4c-2.3-27.9-66.4-22.1-67.1 5.4c-0.1 0.8 1.1 0.9 1.3 0.2z" />
					</g>
				</g>
				<g id="&lt;Group&gt;" style="opacity: .2">
					<path id="&lt;Path&gt;" class="s18" d="m500.1 825.7c-6.7-3-10.6-11-8.9-18c1.3-5.7 5.7-10.2 10.2-13.9c4.5-3.8 9.5-7.2 12.8-12c3.3-4.9 4.5-11.7 1.2-16.5c-3.9-5.4-11.8-6.2-16.2-11c-3.5-3.9-4.1-9.8-2.7-14.9c1.5-5 4.6-9.4 7.9-13.5c-3.2 5.5-1.1 12.8 3.1 17.4c4.2 4.7 10.2 7.3 16.1 9.8c5.8 2.4 11.8 4.8 16.4 9.2c9.1 8.9 9.1 25.5 0 34.4c-1.7 1.7-3.6 3.1-4.9 5c-1.4 1.9-2 4.5-0.7 6.5c0.8 1.2 2.1 2 3.1 3c3 2.9 2.9 8.1 0.5 11.5c-2.4 3.5-6.6 5.3-10.7 5.8c-4.2 0.6-8.4-0.1-12.6-0.7" />
				</g>
			</g>
			<g id="&lt;Group&gt;" style="opacity: .3">
				<path id="&lt;Path&gt;" class="s19" d="m466.2 888.9c0.3 3.2 2.4 6.1 5 8.1c2.6 2 5.7 3.2 8.7 4.3c15.4 5.7 31.8 9.9 48.2 8.9c16.4-0.9 33-7.5 43.3-20.3c-5.5 10.4-15.1 18.3-25.8 23.2c-10.7 4.9-22.5 6.9-34.3 7.3c-10.4 0.4-21.2-0.5-30.2-5.6c-9.1-5-16.1-14.9-15.1-25.2" />
			</g>
		</g>
		<g id="&lt;Group&gt;">
			<path id="&lt;Path&gt;" class="s20" d="m712 315.3l17.2 76l-116.9 18.8l-17.3-74.8z" />
			<text id="React" style="transform: matrix(2.937,-0.612,.612,2.937,622.619,382.602)" >
				<tspan x="0" y="0" class="t21">R</tspan><tspan  y="0" class="t21">E</tspan><tspan  y="0" class="t21">A</tspan><tspan  y="0" class="t21">C</tspan><tspan  y="0" class="t21">T
</tspan>
			</text>
			<path id="&lt;Path&gt;" class="s20" d="m694.8 392.1l16-1.6q2.8 21.6 3.2 22.7q0.4 1.2-16.5-19.6" />
		</g>
		<path id="&lt;Path&gt;" class="s8" d="m426.9 961.1l150.1 423.4l-19.5 3l-154.8-436.6z" />
		<path id="&lt;Path&gt;" class="s8" d="m346 1076.9l118.9 49.5l11 29.4l-145.5-56.9z" />
		<path id="&lt;Path&gt;" class="s8" d="m402.7 950.9q-6.1 1.2-172.5 286.2h-20.5l171-294.7z" />
		<g id="&lt;Group&gt;">
			<g id="&lt;Group&gt;">
				<path id="&lt;Path&gt;" class="s22" d="m342.1 835.9q0.5-27.7 0.9-55.4c0.1-5.4 0.3-11.1 3-15.7c2.8-4.7 9-7.7 13.7-5.1c3.4 1.9 4.9 6 8.1 8.2c7.2 5.2 18.8-1.4 25.5 4.4c3.9 3.2 4.1 8.9 4.1 14q0 17.1-0.1 34.2c0 5.2-0.1 10.7-3 15c-3.1 4.6-8.8 6.7-14.2 8.1c-6.7 1.7-13.7 2.8-20.4 1.7c-6.8-1.1-13.5-4.4-17.3-10.2" />
			</g>
			<path id="&lt;Path&gt;" class="s23" d="m385.3 642.5v50.6q14 9.4 14.8 29.7l3.1 119.1q-33.5 22.5-67 0q0.8-92.7 0-115.3q-0.8-22.5 14-35v-49.1z" />
			<g id="&lt;Group&gt;">
				<g id="&lt;Group&gt;">
					<path id="&lt;Path&gt;" class="s14" d="m350.5 642.7c12.1 5.5 23.4 6.6 35.2-0.3c1.2-0.7 2.2 1.1 1.1 1.8c-11.2 6.5-26.1 7.6-36.9-0.4c-0.7-0.5-0.2-1.5 0.6-1.1z" />
				</g>
			</g>
			<g id="&lt;Group&gt;">
				<g id="&lt;Group&gt;">
					<path id="&lt;Path&gt;" class="s14" d="m336.3 843.1c21.6 13.5 45.9 13.2 66.3-2.2c1.1-0.9 2.2 1 1.1 1.8c-20.4 15.7-47.1 17-68.2 1.8c-0.8-0.6-0.1-2 0.8-1.4z" />
				</g>
			</g>
			<g id="&lt;Group&gt;" style="opacity: .3">
				<path id="&lt;Path&gt;" class="s19" d="m336.7 844.3c9.3 7.4 21.9 9.5 33.7 8.2c11.8-1.3 23-5.7 34.1-10.1c-7.3 10.5-18.3 18.4-30.5 22.1c-8.1 2.4-17.1 3-24.9-0.5c-7.7-3.4-13.7-11.5-13-19.9" />
			</g>
		</g>
		<g id="&lt;Group&gt;">
			<g id="&lt;Group&gt;">
				<path id="&lt;Path&gt;" class="s14" d="m765.1 848.3c4.6-9 9.6-17.8 14.7-26.5c0.6-0.9 2.1-0.1 1.6 0.9c-4.9 8.9-9.8 17.7-15.2 26.2c-0.4 0.7-1.4 0.1-1.1-0.6z" />
			</g>
		</g>
		<g id="&lt;Group&gt;">
			<path id="&lt;Path&gt;" class="s24" d="m980.1 1224.4l12 38.4l-46.2 6.6q-8.8-30.8-8.8-33z" />
			<path id="&lt;Path&gt;" class="s24" d="m854.8 1291.4l12 38.5l-46.2 6.6q-8.8-30.8-8.8-33z" />
			<path id="&lt;Path&gt;" class="s25" d="m802.2 969.1q-9.8-37.6 37.6-41.7q36.1-3.1 118.4 16.4l-22.9 82.2z" />
			<path id="&lt;Path&gt;" class="s25" d="m944.5 1083.5l58.1 158.9l-79.9 23l-93.1-237.5z" />
			<path id="&lt;Path&gt;" class="s26" d="m1059.2 990.6q-6.5 118.1-232.3 67.1l54.8 245.3l-82.6 11.7q-97.6-323.1-76.1-347.5q40.4-45.7 221.5-10.4" />
			<g id="&lt;Group&gt;">
				<path id="&lt;Path&gt;" class="s27" d="m1003.2 603.2c-2.1-0.1-3.8-1.8-4.6-3.7c-0.7-2-0.7-4.1-0.6-6.2q0.5-18.1 0.9-36.3" />
			</g>
			<g id="&lt;Group&gt;">
				<path id="&lt;Path&gt;" class="s14" d="m1001.9 527.9c-7.8 1-16.2-1.1-23.1-4.8c-4.3-2.3-5.7-8.4-2.5-17.6c1.1-3.2 6.2-6.5 9.6-6.2c5.7 0.5 7.2 1.2 9.8-0.9c-6.1-1.8-9.1-9.9-6.3-15.6c2.8-5.7 10.1-8.5 16.3-7c8.2 2 13.6 9.8 20.9 14.1c8.7 5.1 19.6 4.7 29.6 3.4c10-1.4 20.3-3.5 30.2-1.3c15 3.2 26.7 16.1 31.8 30.6c5 14.6 4.3 30.5 1.7 45.7c-1.5 9.1-3.8 18.3-2.3 27.4c0.6 3.7 1.7 7.3 2.1 11c0.5 3.7 0 7.7-2.2 10.6c-2.3 2.9-27.6 3.3-30.7 1.2" />
			</g>
			<path id="&lt;Path&gt;" class="s27" d="m1039.4 516.3c4 0 7.4 3.2 7.7 7.2l10.7 41.6l10.3-2.7c-3.7-27.3 28.1-30.7 35.1-14.5q10.2 23.8-15.1 30.5q-0.9 46.6 22.4 39.8l9.6 70.3l-61.7 4.3l-6.2-56.2q-24.9 4.7-34.3-1c-19.9-11.9-20.3-87.7-19.2-110.9c0.2-3.5 3-6.2 6.5-6.2z" />
			<path id="&lt;Path&gt;" class="s28" d="m1169.1 687.2c1.1 2 2.2 3.9 3.4 5.8c4.7 7.1 16 30.8 4.3 86q-13.5 64.1-40.6 218l-88.9-6.1l-94.7-28.1l26.9-125.9l18.7-130.1q12.3-40.1 59.7-42.8c63.8-11.1 106 13.3 111.2 23.2z" />
			<path id="&lt;Path&gt;" class="s28" d="m780.5 821.3l108.1 31.2l116.7-158l-14.3 127.8q-64 76.7-80.7 86.8q-16.7 10.2-146.2-60z" />
			<g id="&lt;Group&gt;">
				<g id="&lt;Group&gt;">
					<path id="&lt;Path&gt;" class="s14" d="m1012.5 561.3c0.3 1.9 0.6 4.2 0.2 6c-0.3 1-1.8 1-2.1 0c-0.5-1.8-0.2-4.1 0.1-6c0.2-0.8 1.6-0.8 1.8 0z" />
				</g>
			</g>
			<g id="&lt;Group&gt;">
				<g id="&lt;Group&gt;">
					<path id="&lt;Path&gt;" class="s14" d="m1009 547.9c1.8-2.6 7-2.9 8.8-0.2c0.5 0.7-0.3 1.6-1 1.4c-1.1-0.4-2-1-3.2-1.1c-1.3 0-2.3 0.5-3.4 1c-0.7 0.3-1.7-0.4-1.2-1.1z" />
				</g>
			</g>
			<path id="&lt;Path&gt;" class="s14" d="m1050.9 510.7l16.5 19.2q-0.5-4.8-31-3.4q-30.5 1.3-55.8-5.7z" />
			<g id="&lt;Group&gt;">
				<g id="&lt;Group&gt;">
					<path id="&lt;Path&gt;" class="s14" d="m1102.2 489.8c-0.3-3.9-0.2-7.9 1.9-11.3c0.4-0.7 1.4-0.3 1.2 0.5c-0.6 3.6-1.8 7.1-1.9 10.8c0 0.8-1.1 0.8-1.2 0z" />
				</g>
			</g>
			<g id="&lt;Group&gt;">
				<g id="&lt;Group&gt;">
					<path id="&lt;Path&gt;" class="s14" d="m1103.8 489.4c2-1.6 3.9-3.5 6-4.9c0.8-0.5 1.6 0.7 1 1.3c-1.8 1.7-4 3.1-5.9 4.7c-0.8 0.5-1.8-0.5-1.1-1.1z" />
				</g>
			</g>
			<g id="&lt;Group&gt;" style="opacity: .2">
				<path id="&lt;Path&gt;" class="s29" d="m1048.2 583.6c-1.8 2-4.7 3-7.5 2.7c-2.7-0.3-5.2-1.7-7.4-3.5c-2.1-1.6-4-4-3.6-6.7c0.3-2.6 3-4.4 5.7-4.6c2.6-0.3 5.2 0.6 7.7 1.5q9.3 5.8 5.1 10.6z" />
			</g>
			<g id="&lt;Group&gt;" style="opacity: .2">
				<path id="&lt;Path&gt;" class="s29" d="m1084.8 548.2c4.6-1.3 9.9 1.5 11.6 5.9c1.7 4.4-0.3 9.9-4.3 12.5c-4 2.5-9.6 1.9-13.2-1.2c-1.9-1.6-3.3-4-3.5-6.5c-0.2-2.3 0.5-4.7 1.8-6.7c2.4-3.9 4.4-4.1 9-4.6" />
			</g>
			<g id="&lt;Group&gt;">
				<g id="&lt;Group&gt;">
					<path id="&lt;Path&gt;" class="s14" d="m1088.2 546.4c-4.9 1.6-7.7 6.4-7.1 11.4q-0.9-0.2-1.8-0.5c2.6-5.3 13-9.3 15.1-1.3c1.9 7.2-6.8 13.5-13.1 10.1c-0.9-0.5-0.2-1.7 0.7-1.6c4.7 0.8 10.8-0.7 10.8-6.7c-0.1-3.9-3.9-5.2-7.1-4.1c-2.3 0.8-3.8 2.5-4.8 4.6c-0.4 1-1.6 0.3-1.7-0.5c-0.8-5.9 3-11.1 8.7-12.7c0.8-0.2 1.1 1.1 0.3 1.3z" />
				</g>
			</g>
			<g id="&lt;Group&gt;">
				<g id="&lt;Group&gt;">
					<path id="&lt;Path&gt;" class="s14" d="m999.4 557.7c0 6.7-0.1 13.3-0.2 20c-0.1 5.4-2.9 23.4 4.2 25.7c0.6 0.2 0.3 1.2-0.3 1c-5.3-1.3-5.7-5.6-5.9-10.4c-0.4-12 0.6-24.3 1.3-36.3c0.1-0.5 0.8-0.5 0.9 0z" />
				</g>
			</g>
			<g id="&lt;Group&gt;">
				<g id="&lt;Group&gt;">
					<path id="&lt;Path&gt;" class="s14" d="m1015 610.7c3.1-1.6 6.3-2.3 8.9-4.9c2.8-2.8 4.4-6.5 4.9-10.4c0.2-1.2 2.1-1.3 2 0c-0.4 4.3-2.2 8.3-5.3 11.3c-2.6 2.5-6.7 5-10.4 4.5c-0.3-0.1-0.3-0.4-0.1-0.5z" />
				</g>
			</g>
			<g id="&lt;Group&gt;">
				<g id="&lt;Group&gt;">
					<path id="&lt;Path&gt;" class="s14" d="m1026 595.7c1.9-1 6-2.3 7.5-0.2c0.3 0.4 0 0.9-0.4 1c-0.9 0.5-1.9 0-3-0.1c-1.2 0-2.3 0.3-3.5 0.7c-0.8 0.4-1.4-1.1-0.6-1.4z" />
				</g>
			</g>
			<g id="&lt;Group&gt;">
				<path id="&lt;Path&gt;" class="s30" d="m1126.6 1091q-34.1 26.6-85.6 33q-56.7 7-102.5-16.9z" />
				<path id="&lt;Path&gt;" class="s31" d="m1205.6 769.6c17.1-0.5 26.3 4.8 30.2 15.7c4 11-3.4 86.3-9.9 124.8c-6.6 38.6-19.4 89.7-33.4 116.8c-14 27.2-36.6 53-71.3 66.3q-42.3 16.3-122.2 14.5q-154.4 1.1-126.6-36.4l90.4-0.8c26.5-1.6 58.2-14.8 67.3-39.7c22.3-61.4 20.1-160.4 28.3-201.9q10.6-53.7 59.2-59.3q70.9 0.4 88 0z" />
				<path id="&lt;Path&gt;" class="s30" d="m1041.6 1122.2l-2.2 166.6l-21.1 2v-165.5z" />
				<path id="&lt;Path&gt;" class="s30" d="m1115.2 1355c-41.6 24.2-161.3 26.1-185.3-28.2q-25.2-56.9 98.2-57.4c132.8 8.5 122.1 65.4 87.1 85.6z" />
				<g id="&lt;Group&gt;">
					<g id="&lt;Group&gt;">
						<path id="&lt;Path&gt;" class="s14" d="m1018.7 1258.1c-0.1 20-8.7 58.3-37.3 51.4c-0.7-0.2-0.6-1.4 0.2-1.4c28.6-0.2 33.9-26.8 36.4-50c0-0.5 0.7-0.5 0.7 0z" />
					</g>
				</g>
				<g id="&lt;Group&gt;">
					<g id="&lt;Group&gt;">
						<path id="&lt;Path&gt;" class="s14" d="m1040.3 1250.7c1.7 14.4 1.9 29.1 9.7 41.8c7.9 12.9 21.8 16.7 35.2 21.2c1.2 0.4 0.7 2.3-0.5 2c-13-3.2-26.4-7.8-34.7-18.9c-9.7-13-10.8-30.5-10-46.1c0-0.2 0.3-0.2 0.3 0z" />
					</g>
				</g>
				<g id="&lt;Group&gt;" style="opacity: .3">
					<path id="&lt;Path&gt;" class="s14" d="m872.4 1071.3q55.3 1 100.2-1.9c26.5-1.6 57.5-38.6 64.6-62.6c7.2-23.9 13.3-96.1 20.5-174q7.2-77.9 93.6-63.3l-30.6 4.1c-11.7 1.3-21.3 10.7-26.2 21.4c-4.8 10.7-5.9 22.8-6.8 34.5q-6.3 75.6-12.6 151.2c-2 24.5-4.6 50.4-19.3 70c-13.1 17.3-33.9 27.1-54.6 33.5c-41.2 12.8-80.3 18-121.9 6.8q-14.4-4-6.9-19.7z" />
				</g>
				<g id="&lt;Group&gt;">
					<g id="&lt;Group&gt;">
						<path id="&lt;Path&gt;" class="s14" d="m877.8 1090.4c34.7 1.7 69.8 1 104.2-4.7c29.7-5 59.9-15 75.8-42.4c13.6-23.4 17.5-50.7 18.3-77.2c0.9-27.8 2.6-55.5 5.4-83.1c2.6-25.8 4.6-53.1 10.8-78.3c2.4-9.4 6.1-18.5 13.9-24.5c19.4-15 50.7-12.3 74-12.8c19.8-0.4 55.2-3.6 57.8 24.3c0.2 1.4-2 1.4-2.2 0c-3.4-32.3-63-22.1-84.3-21c-15.6 0.8-36.7 2.4-47.9 15c-11.8 13.3-12 35.4-14.3 52c-4 28.3-7 56.8-8.9 85.3c-1.6 22.4-0.9 45.3-4.1 67.4c-5 35.2-19.2 69.7-53.2 84.9c-43.5 19.5-98.8 19-145.3 16.1c-0.7-0.1-0.7-1.1 0-1z" />
					</g>
				</g>
				<g id="&lt;Group&gt;">
					<g id="&lt;Group&gt;">
						<path id="&lt;Path&gt;" class="s14" d="m874.5 1086.6c38 21.3 82 21.2 124.4 19.8c47-1.7 93-8.2 138.9-18.3c1.2-0.3 1.8 1.5 0.5 1.8c-47.3 11.8-96.5 17.3-145.2 18.6c-39.8 1.1-84.5 1.6-119.3-20.8c-0.7-0.4-0.1-1.5 0.7-1.1z" />
					</g>
				</g>
			</g>
			<path id="&lt;Path&gt;" class="s32" d="m866.8 1329.9q10.5 32.7 10.2 34.9c-0.2 2.2-131.4-5.2-123.3-11.8c8.1-6.6 17-12.4 68.5-11.6l-1.6-4.9z" />
			<path id="&lt;Path&gt;" class="s32" d="m992.1 1262.8q10.6 32.7 10.3 34.9c-0.2 2.2-131.4-5.2-123.3-11.8c8.1-6.6 16.9-12.3 68.5-11.5l-1.7-5z" />
			<g id="&lt;Group&gt;">
				<g id="&lt;Group&gt;">
					<path id="&lt;Path&gt;" class="s14" d="m752.9 1355.6c41.8 2.8 83.2 7.8 125.1 9.3c1.6 0 1.6 2.5 0 2.4c-41.7-2.4-84-4-125.2-10.4c-0.8-0.1-0.6-1.3 0.1-1.3z" />
				</g>
			</g>
			<g id="&lt;Group&gt;">
				<g id="&lt;Group&gt;">
					<path id="&lt;Path&gt;" class="s14" d="m811.5 1341.5c0 1.6-0.3 3.1-0.3 4.7c0.1 1.8 0.6 3.5 0.9 5.2c0.2 0.8-0.9 1.3-1.3 0.6c-1.8-2.9-2.1-7.8-0.4-10.8c0.3-0.6 1.1-0.3 1.1 0.3z" />
				</g>
			</g>
			<g id="&lt;Group&gt;">
				<g id="&lt;Group&gt;">
					<path id="&lt;Path&gt;" class="s14" d="m816.8 1340.9c0.1 1.8 0.4 3.7 0.8 5.4c0.4 1.7 1.3 3.2 1.5 4.8c0.1 0.6-0.7 1.3-1.2 0.7c-2.5-2.7-2.5-7.6-1.9-11c0.1-0.5 0.8-0.4 0.8 0.1z" />
				</g>
			</g>
			<g id="&lt;Group&gt;">
				<g id="&lt;Group&gt;">
					<path id="&lt;Path&gt;" class="s14" d="m822.4 1340.3c0.8 1.5 1.2 3.1 2.1 4.5c0.9 1.5 2.2 2.6 3.1 4c0.4 0.8-0.5 1.6-1.3 1.2c-2.8-1.3-5.3-6.4-5-9.4c0-0.6 0.8-0.9 1.1-0.3z" />
				</g>
			</g>
			<g id="&lt;Group&gt;">
				<g id="&lt;Group&gt;">
					<path id="&lt;Path&gt;" class="s14" d="m822.2 1340c2.4 0 4.9 0 7.4 0.4c1 0.2 0.7 1.7-0.2 1.7c-2.5-0.1-4.9-0.7-7.4-1.3c-0.4-0.1-0.3-0.8 0.2-0.8z" />
				</g>
			</g>
			<g id="&lt;Group&gt;">
				<g id="&lt;Group&gt;">
					<path id="&lt;Path&gt;" class="s14" d="m810.9 1342.4c-1.1-2.2-2.7-4.4-4.2-6.3c-1.2-1.5-3.8-5.1-5.9-5.2c-3.5-0.2-1.2 3.4-0.3 4.3c0.9 1 2.1 1.8 3.3 2.4c2.3 1.4 4.8 1.9 7.3 2.7c1.1 0.4 0.9 2-0.2 2c-4.4-0.1-18.6-6.2-13.4-12.6c2.3-2.8 6-0.4 7.9 1.6c3.1 3 5.1 6.6 6.7 10.6c0.3 0.7-0.9 1.2-1.2 0.5z" />
				</g>
			</g>
			<g id="&lt;Group&gt;">
				<g id="&lt;Group&gt;">
					<path id="&lt;Path&gt;" class="s14" d="m811.4 1340.7c0.5-2.5 1.3-4.7 1.4-7.3c0-1.4 0.1-6-1.4-6.5c-1.7-0.6-1.5 6.4-1.3 7.7c0.4 2 1.3 3.8 2 5.7c0.2 0.9-1 1.6-1.5 0.9c-2.4-2.7-3.1-6.9-2.9-10.4c0.2-2.1 0.7-6.7 3.6-6.9c2.8-0.2 3.4 3.8 3.7 5.9c0.5 3.8 0 8.3-2.3 11.5c-0.5 0.6-1.5 0.2-1.3-0.6z" />
				</g>
			</g>
			<g id="&lt;Group&gt;">
				<g id="&lt;Group&gt;">
					<path id="&lt;Path&gt;" class="s14" d="m782.3 1342.2c4.3 3.5 8.6 10.4 7.2 16.2c-0.1 0.6-1 0.6-1.2 0c-0.7-2.5-0.7-5.1-1.6-7.6c-1.1-3-2.9-5.6-5-7.9c-0.4-0.5 0.2-1 0.6-0.7z" />
				</g>
			</g>
			<g id="&lt;Group&gt;">
				<g id="&lt;Group&gt;">
					<path id="&lt;Path&gt;" class="s14" d="m850.7 1363.7c1-10.8 11.4-18.6 21.8-19.1c1.1 0 1.1 1.7 0 1.8c-10.8 1.1-17.1 7.7-20.6 17.5c-0.2 0.6-1.2 0.6-1.2-0.2z" />
				</g>
			</g>
			<g id="&lt;Group&gt;">
				<g id="&lt;Group&gt;">
					<path id="&lt;Path&gt;" class="s14" d="m857 1331.7c1.3 2.6 2.2 5.4 3.2 8.1c1 2.7 2.4 5.5 2.6 8.4c0.1 0.6-0.8 0.7-1.1 0.3c-1.5-2.3-2.1-5.1-2.9-7.6c-1-2.9-2.2-5.8-2.8-8.8c-0.1-0.6 0.7-1 1-0.4z" />
				</g>
			</g>
			<g id="&lt;Group&gt;">
				<g id="&lt;Group&gt;">
					<path id="&lt;Path&gt;" class="s14" d="m820 1336.6c15.3-4.2 31.9-5.2 47.6-7.5c1-0.2 1.5 1.4 0.4 1.6c-15.7 2.3-32 6.1-47.9 6.5c-0.3 0-0.4-0.5-0.1-0.6z" />
				</g>
			</g>
			<g id="&lt;Group&gt;">
				<g id="&lt;Group&gt;">
					<path id="&lt;Path&gt;" class="s14" d="m879 1287.6c40.4 3.5 80.6 7.3 121.2 8.9c1.4 0.1 1.4 2.3 0 2.3c-40.4-1.1-81.5-3.7-121.4-10.3c-0.4-0.1-0.3-0.9 0.2-0.9z" />
				</g>
			</g>
			<g id="&lt;Group&gt;">
				<g id="&lt;Group&gt;">
					<path id="&lt;Path&gt;" class="s14" d="m940.8 1273.9q0.6 2.2 1 4.4c0.3 1.3 0.7 2.5 0.5 3.7c-0.1 0.6-1 0.7-1.3 0.2c-0.7-1.2-0.7-2.7-0.9-4q-0.4-2-0.6-4.1c0-0.7 1.1-0.8 1.3-0.2z" />
				</g>
			</g>
			<g id="&lt;Group&gt;">
				<g id="&lt;Group&gt;">
					<path id="&lt;Path&gt;" class="s14" d="m945.7 1273.8c0.7 1.3 1.1 2.7 1.5 4.1c0.4 1.3 1.1 2.6 0.8 3.9c-0.2 0.5-0.9 0.7-1.3 0.3c-0.9-0.9-1-2.4-1.4-3.7c-0.3-1.4-0.7-2.8-0.9-4.2c-0.1-0.7 1-1 1.3-0.4z" />
				</g>
			</g>
			<g id="&lt;Group&gt;">
				<g id="&lt;Group&gt;">
					<path id="&lt;Path&gt;" class="s14" d="m947.4 1272.7c2 1.2 4.2 2.2 6.2 3.6c1.1 0.8 0.1 2.5-1 1.8c-2-1.4-3.8-3.1-5.7-4.5c-0.6-0.4-0.1-1.3 0.5-0.9z" />
				</g>
			</g>
			<g id="&lt;Group&gt;">
				<g id="&lt;Group&gt;">
					<path id="&lt;Path&gt;" class="s14" d="m935.9 1274.8c-0.3 1.6-0.4 3.1-0.4 4.6c0 1.4 0.4 2.8 0.2 4.2c0 0.9-1.1 1-1.4 0.2c-1.2-2.8-0.4-6.5 0.3-9.3c0.3-0.8 1.4-0.5 1.3 0.3z" />
				</g>
			</g>
			<g id="&lt;Group&gt;">
				<g id="&lt;Group&gt;">
					<path id="&lt;Path&gt;" class="s14" d="m936.6 1273.6c-1-1.6-2.4-3.2-3.9-4.5c-0.6-0.6-1.5-1.8-2.3-1.9c-2-0.3-1.6 0.9-0.6 1.9c2.7 2.7 6.6 4 10.4 4.1c1.3 0 1.3 2 0 2c-3.4 0.1-6.7-0.8-9.6-2.6c-1.8-1.3-4.5-3.2-4.2-5.8c0.3-2.5 2.9-2.8 4.8-1.7c3 1.8 5 4.9 6.7 7.8c0.5 0.8-0.8 1.6-1.3 0.7z" />
				</g>
			</g>
			<g id="&lt;Group&gt;">
				<g id="&lt;Group&gt;">
					<path id="&lt;Path&gt;" class="s14" d="m939.6 1274c0.7-1.7 1.1-3.7 1.1-5.5c0.1-1.2 0.2-5.4-1.9-4c-0.9 0.7-1.4 3.8-1.6 4.9c-0.4 1.8-0.4 3.7-0.3 5.6c0.1 1.4-2 1.3-2.1 0c-0.3-3.2 0.1-6.5 1.3-9.4c0.6-1.7 1.7-4.5 4-4.1c2 0.4 2.3 2.8 2.5 4.5c0.3 3.1-0.4 5.7-1.7 8.5c-0.3 0.8-1.6 0.2-1.3-0.5z" />
				</g>
			</g>
			<g id="&lt;Group&gt;">
				<g id="&lt;Group&gt;">
					<path id="&lt;Path&gt;" class="s14" d="m944.9 1269.3c15.4-4.1 32.4-4.9 48.1-6.8c1.3-0.1 1.6 2.1 0.3 2.3c-15.7 2.2-32.4 5.6-48.2 5.4c-0.5 0-0.7-0.8-0.2-0.9z" />
				</g>
			</g>
			<g id="&lt;Group&gt;">
				<g id="&lt;Group&gt;">
					<path id="&lt;Path&gt;" class="s14" d="m996 1276.3c-10.1-1.5-19.1 10.3-17.6 19.6c0.2 1.3 2.1 0.9 2.2-0.3c0.4-4.7 1.1-8.7 4.4-12.3c3.1-3.4 6.9-4.4 11-5.9c0.5-0.2 0.6-1 0-1.1z" />
				</g>
			</g>
			<g id="&lt;Group&gt;">
				<g id="&lt;Group&gt;">
					<path id="&lt;Path&gt;" class="s14" d="m980.3 1264.8c0.9 3.5 1.2 7.1 1.8 10.7c0.6 3.2 1.5 6.3 1.9 9.5c0 0.7-1.1 1-1.4 0.4c-2.8-5.9-4.3-14.2-3.4-20.6c0.1-0.6 1-0.5 1.1 0z" />
				</g>
			</g>
			<g id="&lt;Group&gt;">
				<g id="&lt;Group&gt;">
					<path id="&lt;Path&gt;" class="s14" d="m906.6 1274.4c7.9 3.6 8.8 11.8 9 19.5c0 1.6-2.4 1.6-2.4 0c-0.2-6.5-0.6-14.8-7.2-18.3c-0.8-0.4-0.1-1.5 0.6-1.2z" />
				</g>
			</g>
			<g id="&lt;Group&gt;">
				<g id="&lt;Group&gt;">
					<path id="&lt;Path&gt;" class="s33" d="m818.1 1328.9c15.1-2.3 30.2-4.3 45.1-7.8c1.2-0.3 1.6 1.5 0.5 1.7c-15 3-30.2 6-45.5 7.1c-0.6 0.1-0.7-0.9-0.1-1z" />
				</g>
			</g>
			<g id="&lt;Group&gt;">
				<g id="&lt;Group&gt;">
					<path id="&lt;Path&gt;" class="s33" d="m816.1 1321.9c14.7-3.9 30.2-4.8 45.1-8.1c1.2-0.3 1.7 1.7 0.5 1.9c-15.1 2.2-30.2 6.4-45.5 7.3c-0.6 0-0.7-0.9-0.1-1.1z" />
				</g>
			</g>
			<g id="&lt;Group&gt;">
				<g id="&lt;Group&gt;">
					<path id="&lt;Path&gt;" class="s33" d="m814.2 1314.5c15-2.5 30.1-4.4 44.9-8c1-0.3 1.4 1.3 0.4 1.5c-14.8 3.6-29.9 6.9-45.2 7.7c-0.7 0-0.8-1.1-0.1-1.2z" />
				</g>
			</g>
			<g id="&lt;Group&gt;">
				<g id="&lt;Group&gt;">
					<path id="&lt;Path&gt;" class="s33" d="m943.8 1264.5c14.4-4 29.1-7.2 43.5-11.2c1.1-0.3 1.6 1.4 0.5 1.7c-14.3 4.2-29 8.2-43.7 10.5c-0.7 0.1-1-0.9-0.3-1z" />
				</g>
			</g>
			<g id="&lt;Group&gt;">
				<g id="&lt;Group&gt;">
					<path id="&lt;Path&gt;" class="s14" d="m797.4 1314.5c28-3.4 56-7 83.9-11.4c1.2-0.2 1.8 1.8 0.5 1.9c-28 4.4-56.2 8.4-84.4 11.2c-1.1 0.1-1.1-1.6 0-1.7z" />
				</g>
			</g>
			<g id="&lt;Group&gt;">
				<g id="&lt;Group&gt;">
					<path id="&lt;Path&gt;" class="s14" d="m814.9 1312.2c-12.4-51.6-23.7-103.5-35.4-155.3c-5.7-24.9-11.3-49.8-16.9-74.8c-3.4-15.3-14.7-41.1-7.6-56.6c7-15.5 29.6-8.5 42.4-6.9c22.4 2.9 44.5 7.2 66.7 11.4c51.1 9.9 101.7 19 154 14.6c1.6-0.2 1.5 2.3 0 2.4c-42.6 5-85.4-1.2-127.2-8.9c-21.2-3.9-42.2-8.3-63.4-12c-11.8-2-23.7-3.9-35.6-5.3c-5.3-0.6-11.3-2-16.6-1.7c-15.7 1.1-19.3 8.1-18.3 22.5c0.7 11.2 5.1 23 7.5 33.9q3.9 17.3 7.7 34.5c4.9 22.1 9.9 44.2 14.7 66.3c9.8 45.1 20.3 90.2 29.7 135.5c0.2 1-1.4 1.5-1.7 0.4z" />
				</g>
			</g>
			<g id="&lt;Group&gt;">
				<g id="&lt;Group&gt;">
					<path id="&lt;Path&gt;" class="s14" d="m923 1265.1c25.5-11.9 52.4-20.8 79.7-27.8c1.3-0.3 1.8 1.7 0.6 2c-27.4 7.1-53.5 16.7-79.6 27.5c-1 0.4-1.7-1.3-0.7-1.7z" />
				</g>
			</g>
			<g id="&lt;Group&gt;">
				<g id="&lt;Group&gt;">
					<path id="&lt;Path&gt;" class="s14" d="m984.2 1243.7c-25.8-42.9-45.9-89.3-62-136.6c-0.6-1.9 2.4-2.7 3-0.8c16.2 47.4 37.1 92.3 60.5 136.5c0.5 1-1 1.9-1.5 0.9z" />
				</g>
			</g>
			<g id="&lt;Group&gt;">
				<g id="&lt;Group&gt;">
					<path id="&lt;Path&gt;" class="s14" d="m979.2 836.6c21.2-27 42.7-53.7 64.1-80.5c0.7-0.8 1.8 0.4 1.2 1.2c-21.4 26.8-42.6 53.8-64.7 80c-0.4 0.4-1-0.2-0.6-0.7z" />
				</g>
			</g>
			<g id="&lt;Group&gt;">
				<g id="&lt;Group&gt;">
					<path id="&lt;Path&gt;" class="s34" d="m1051.1 705.8c1.1-2.1 4.4-2.3 6.5-2c2.6 0.3 5 1.6 6.6 3.6c3.3 4.1 2.2 10.8-1.9 13.9c-4.2 3.3-11 2.2-14.1-2.2c-3.2-4.4-1.8-11.1 2.8-13.9c0.9-0.6 2 0.8 1.2 1.5c-3.2 2.7-4.8 7.3-2.4 11c2.4 3.7 8 4.5 11.3 1.8c3.3-2.7 3.9-8.2 0.9-11.4c-1.5-1.5-3.7-2.4-5.8-2.4c-1.7-0.1-3.1 0.8-4.7 0.8c-0.4 0-0.6-0.4-0.4-0.7z" />
				</g>
			</g>
			<g id="&lt;Group&gt;">
				<g id="&lt;Group&gt;">
					<path id="&lt;Path&gt;" class="s34" d="m984.6 760.8c1.1-2.1 4.4-2.3 6.5-2c2.5 0.3 5 1.6 6.6 3.6c3.2 4.1 2.2 10.7-1.9 13.9c-4.3 3.3-11 2.1-14.1-2.2c-3.2-4.5-1.8-11.1 2.8-13.9c0.9-0.6 2 0.8 1.1 1.5c-3.1 2.6-4.7 7.3-2.3 11c2.3 3.6 7.9 4.5 11.3 1.8c3.3-2.7 3.9-8.2 0.9-11.4c-1.5-1.6-3.7-2.4-5.8-2.4c-1.7-0.1-3.1 0.7-4.7 0.7c-0.4 0-0.6-0.3-0.4-0.6z" />
				</g>
			</g>
			<g id="&lt;Group&gt;">
				<g id="&lt;Group&gt;">
					<path id="&lt;Path&gt;" class="s34" d="m1131.5 693c1.2-2 4.4-2.2 6.5-1.9c2.6 0.3 5 1.6 6.6 3.6c3.3 4.1 2.3 10.7-1.9 13.9c-4.2 3.3-11 2.1-14.1-2.2c-3.1-4.5-1.8-11.1 2.8-14c0.9-0.5 2 0.8 1.2 1.6c-3.2 2.6-4.8 7.3-2.4 11c2.4 3.6 8 4.5 11.3 1.8c3.3-2.7 3.9-8.2 0.9-11.4c-1.5-1.6-3.6-2.4-5.8-2.5c-1.7 0-3.1 0.8-4.7 0.8c-0.4 0-0.6-0.4-0.4-0.7z" />
				</g>
			</g>
			<g id="&lt;Group&gt;">
				<g id="&lt;Group&gt;">
					<path id="&lt;Path&gt;" class="s34" d="m1084.1 737c4.3-6.2 9.1-12.1 13.8-17.9c0.7-0.9 2.3 0.3 1.6 1.2c-4.5 6-9.1 12.1-14.2 17.7c-0.5 0.6-1.6-0.3-1.2-1z" />
				</g>
			</g>
			<g id="&lt;Group&gt;">
				<g id="&lt;Group&gt;">
					<path id="&lt;Path&gt;" class="s34" d="m1112.4 739.8c-0.6-0.3-1-0.7-1.4-1.3c-0.5-0.6 0.1-1.5 0.8-1.5c0.8 0 1.3 0.2 2 0.5c1.5 0.7 0.2 3.2-1.4 2.3z" />
				</g>
			</g>
			<g id="&lt;Group&gt;">
				<g id="&lt;Group&gt;">
					<path id="&lt;Path&gt;" class="s34" d="m1082.1 704.3q-0.1 0.3-0.2 0.6c-0.4 0.9-1.4 0.9-1.8 0q-0.1-0.3-0.2-0.6c-0.7-1.8 2.9-1.8 2.2 0z" />
				</g>
			</g>
			<g id="&lt;Group&gt;">
				<g id="&lt;Group&gt;">
					<path id="&lt;Path&gt;" class="s34" d="m1140.9 729.7q2 2 4 4.1c1.3 1.2 2.7 2.4 3.7 3.8c0.4 0.7-0.5 1.6-1.1 1.1c-1.4-1-2.5-2.5-3.7-3.8q-1.9-2.2-3.8-4.3c-0.6-0.6 0.3-1.5 0.9-0.9z" />
				</g>
			</g>
			<g id="&lt;Group&gt;">
				<g id="&lt;Group&gt;">
					<path id="&lt;Path&gt;" class="s34" d="m1161.8 721.3q0 0.2-0.1 0.4c-0.2 1-1.7 1-1.9 0q-0.1-0.2-0.1-0.4c-0.5-1.8 2.6-1.8 2.1 0z" />
				</g>
			</g>
			<g id="&lt;Group&gt;">
				<g id="&lt;Group&gt;">
					<path id="&lt;Path&gt;" class="s34" d="m1108.7 678.7q2 4 3.9 7.9c1.2 2.3 2.6 4.7 3.3 7.2c0.2 0.9-0.9 1.2-1.4 0.6c-1.6-2.2-2.5-5-3.7-7.4q-1.7-3.8-3.4-7.6c-0.3-0.8 0.8-1.5 1.3-0.7z" />
				</g>
			</g>
			<g id="&lt;Group&gt;">
				<g id="&lt;Group&gt;">
					<path id="&lt;Path&gt;" class="s34" d="m1059 689q3-2.5 5.9-5c1.8-1.6 3.5-3.3 5.5-4.6c0.8-0.5 1.6 0.6 1 1.3c-1.6 1.7-3.8 3.2-5.6 4.7q-2.9 2.3-5.7 4.7c-0.8 0.6-1.8-0.5-1.1-1.1z" />
				</g>
			</g>
			<g id="&lt;Group&gt;">
				<g id="&lt;Group&gt;">
					<path id="&lt;Path&gt;" class="s34" d="m1018.1 714.6c4.6 5.2 10 10.2 14 15.8c0.7 1-0.8 2-1.6 1.3c-5-4.8-9-10.7-13.5-15.9c-0.7-0.8 0.4-2 1.1-1.2z" />
				</g>
			</g>
			<g id="&lt;Group&gt;">
				<g id="&lt;Group&gt;">
					<path id="&lt;Path&gt;" class="s34" d="m1027.9 697.9c1.3 0 1.3-2 0-2c-1.3 0-1.3 2 0 2z" />
				</g>
			</g>
			<g id="&lt;Group&gt;">
				<g id="&lt;Group&gt;">
					<path id="&lt;Path&gt;" class="s34" d="m1012.4 740.1q0 0.2 0 0.4c0.1 1.5-2.3 1.5-2.2 0q0-0.2 0-0.4c0.1-1.4 2.1-1.4 2.2 0z" />
				</g>
			</g>
			<g id="&lt;Group&gt;">
				<g id="&lt;Group&gt;">
					<path id="&lt;Path&gt;" class="s34" d="m1086 670.9c1.3 0 1.3-1.9 0-1.9c-1.2 0-1.2 1.9 0 1.9z" />
				</g>
			</g>
			<g id="&lt;Group&gt;">
				<g id="&lt;Group&gt;">
					<path id="&lt;Path&gt;" class="s34" d="m1127.4 675.9q0.6 0.1 1.2 0.2c0.9 0.1 0.9 1.7 0 1.8q-0.6 0.1-1.2 0.2c-1.8 0.2-1.8-2.4 0-2.2z" />
				</g>
			</g>
			<g id="&lt;Group&gt;">
				<g id="&lt;Group&gt;">
					<path id="&lt;Path&gt;" class="s34" d="m1165.2 685.9c-1.5 4.5-2.6 9.2-4.5 13.6c-0.5 1-2.1 0.2-1.8-0.8c1.1-4.5 3.2-8.9 4.7-13.2c0.3-1 1.9-0.6 1.6 0.4z" />
				</g>
			</g>
			<g id="&lt;Group&gt;">
				<g id="&lt;Group&gt;">
					<path id="&lt;Path&gt;" class="s34" d="m1161.9 756.6c4.2-3.5 7.5-7.7 11.4-11.4c0.8-0.8 2.3 0.3 1.6 1.2c-3 4.5-7.7 8-11.9 11.3c-0.8 0.6-2-0.5-1.1-1.1z" />
				</g>
			</g>
			<g id="&lt;Group&gt;">
				<g id="&lt;Group&gt;">
					<path id="&lt;Path&gt;" class="s34" d="m1115.8 752.9c-4.6 0.7-8.4 5.5-6.9 10.2c1.3 4 6.3 6.7 10.3 5.3c4.5-1.6 6.7-7.5 4-11.5c-2.3-3.3-6.7-4.4-10.3-2.9c-0.9 0.3-1.6-1.2-0.7-1.6c4.7-2 10.5-0.2 12.7 4.6c2 4.7-0.6 10.8-5.2 12.8c-5 2.2-11.1-1-12.6-6.2c-1.7-5.7 2.8-11.1 8.3-11.9c0.8-0.2 1.2 1.1 0.4 1.2z" />
				</g>
			</g>
			<g id="&lt;Group&gt;">
				<g id="&lt;Group&gt;">
					<path id="&lt;Path&gt;" class="s34" d="m1070.6 753c3.8 4.5 7.7 8.9 11.5 13.5c0.8 0.9-0.6 2.4-1.4 1.4c-3.7-4.6-7.3-9.3-11-14c-0.5-0.6 0.4-1.5 0.9-0.9z" />
				</g>
			</g>
			<g id="&lt;Group&gt;">
				<g id="&lt;Group&gt;">
					<path id="&lt;Path&gt;" class="s34" d="m1049 775.2q0 0 0.1-0.1q-0.2 0.8-0.4 1.5q0 0 0 0c-0.9-0.7 0.1-2.2 1.1-1.9q0.1 0 0.1 0.1c0.6 0.1 1.1 0.8 0.9 1.4c-0.2 0.4-0.3 0.7-0.7 0.9c-1.3 0.7-2.3-1.1-1.1-1.9z" />
				</g>
			</g>
			<g id="&lt;Group&gt;">
				<g id="&lt;Group&gt;">
					<path id="&lt;Path&gt;" class="s34" d="m1042.2 789.7c-4.4 0.7-8 4.6-7.8 9.1c0.3 4.2 4.2 7.8 8.4 7.8c4.4 0 8.5-4.2 8.2-8.7c-0.2-4.5-4.3-7.6-8.6-7.9c-1.2-0.1-1.3-2 0-2c5.5-0.2 10.6 4.3 10.8 9.9c0.2 5.3-4.1 10.3-9.4 10.8c-5.2 0.6-10.4-3.5-11.3-8.7c-1-5.9 3.7-10.9 9.3-11.7c0.9-0.2 1.4 1.3 0.4 1.4z" />
				</g>
			</g>
			<g id="&lt;Group&gt;">
				<g id="&lt;Group&gt;">
					<path id="&lt;Path&gt;" class="s34" d="m1005.9 816.4c1.4 2.7 3 5.2 4.7 7.7c1.7 2.4 4 4.6 5.3 7.3c0.4 0.8-0.5 1.9-1.4 1.3c-2.2-1.6-3.8-4.3-5.3-6.6c-1.9-2.8-3.4-5.7-5-8.7c-0.5-1.1 1.1-2.1 1.7-1z" />
				</g>
			</g>
			<g id="&lt;Group&gt;">
				<g id="&lt;Group&gt;">
					<path id="&lt;Path&gt;" class="s34" d="m1014.8 852.3c6.6-1.7 12-5 18.1-7.8c0.9-0.4 2 0.7 1.1 1.4c-5.2 4.2-12.4 6.3-18.8 7.9c-0.9 0.2-1.3-1.3-0.4-1.5z" />
				</g>
			</g>
			<g id="&lt;Group&gt;">
				<g id="&lt;Group&gt;">
					<path id="&lt;Path&gt;" class="s34" d="m1024.2 818.8c1.3 0 1.3-2.1 0-2.1c-1.4 0-1.4 2.1 0 2.1z" />
				</g>
			</g>
			<g id="&lt;Group&gt;">
				<g id="&lt;Group&gt;">
					<path id="&lt;Path&gt;" class="s34" d="m1049.1 847.1c1.5 0 1.5-2.3 0-2.3c-1.5 0-1.5 2.3 0 2.3z" />
				</g>
			</g>
			<g id="&lt;Group&gt;">
				<g id="&lt;Group&gt;">
					<path id="&lt;Path&gt;" class="s34" d="m990 850.7q0.6 0.7 1.1 1.3c0.7 0.8-0.3 1.9-1.2 1.2q-0.6-0.6-1.3-1.1c-0.9-0.9 0.6-2.3 1.4-1.4z" />
				</g>
			</g>
			<g id="&lt;Group&gt;">
				<g id="&lt;Group&gt;">
					<path id="&lt;Path&gt;" class="s34" d="m1033.9 870.9c-5-0.9-9.3 3.4-8.2 8.5c1.1 4.5 5.8 7 10.3 5.9c8.8-2.2 8.4-15.9-1.4-15.4c-1.4 0.1-1.4-2 0-2.1c5.6-0.6 10.6 4.4 10.1 10.1c-0.5 5.4-5.2 9.7-10.6 9.9c-5.9 0.1-11.2-4.7-10.5-10.8c0.5-5.3 5.6-8.6 10.7-7.4c0.8 0.2 0.4 1.4-0.4 1.3z" />
				</g>
			</g>
			<g id="&lt;Group&gt;">
				<g id="&lt;Group&gt;">
					<path id="&lt;Path&gt;" class="s34" d="m1006 882.9c0.4 4.9 1.6 10.5 1 15.4c-0.1 0.8-1.3 1.1-1.6 0.2c-1.3-4.8-0.8-10.6-1.1-15.6c-0.1-1 1.6-1 1.7 0z" />
				</g>
			</g>
			<g id="&lt;Group&gt;">
				<g id="&lt;Group&gt;">
					<path id="&lt;Path&gt;" class="s34" d="m988.3 908.5c4.4 4.2 9.1 8.3 13.3 12.8c1 1-0.5 2.5-1.6 1.6c-4.6-4.1-8.8-8.6-13.2-13c-0.9-0.9 0.5-2.4 1.5-1.4z" />
				</g>
			</g>
			<g id="&lt;Group&gt;">
				<g id="&lt;Group&gt;">
					<path id="&lt;Path&gt;" class="s34" d="m1037.9 928.8c1.8 0 1.8-2.9 0-2.9c-1.9 0-1.9 2.9 0 2.9z" />
				</g>
			</g>
			<g id="&lt;Group&gt;">
				<g id="&lt;Group&gt;">
					<path id="&lt;Path&gt;" class="s34" d="m996.1 952.5c-0.6 0.6-1 0.8-1.9 0.8c-0.6 0-1.1-0.5-1.1-1.1c0-0.9 0.3-1.3 0.9-1.9c1.3-1.5 3.6 0.9 2.1 2.2z" />
				</g>
			</g>
			<g id="&lt;Group&gt;">
				<g id="&lt;Group&gt;">
					<path id="&lt;Path&gt;" class="s34" d="m978 792.4c7 0.3 14.1 0.2 21 1.2c0.9 0.1 0.6 1.5-0.2 1.5c-6.9 0.1-13.9-0.9-20.8-1.4c-0.8-0.1-0.8-1.3 0-1.3z" />
				</g>
			</g>
			<g id="&lt;Group&gt;">
				<g id="&lt;Group&gt;">
					<path id="&lt;Path&gt;" class="s34" d="m951.3 793c-0.7 8.3 0.2 16.1 0.7 24.3c0 1.1-1.6 1.3-1.8 0.3c-1.5-8-0.9-16.5-0.2-24.6c0-0.8 1.4-0.8 1.3 0z" />
				</g>
			</g>
			<g id="&lt;Group&gt;">
				<g id="&lt;Group&gt;">
					<path id="&lt;Path&gt;" class="s34" d="m967 817.5c1.4 0 1.4-2.1 0-2.1c-1.4 0-1.4 2.1 0 2.1z" />
				</g>
			</g>
			<g id="&lt;Group&gt;">
				<g id="&lt;Group&gt;">
					<path id="&lt;Path&gt;" class="s34" d="m963.9 773.6c0 0.5 0 1-0.1 1.5c-0.1 0.8-1.5 0.8-1.6 0c-0.1-0.5-0.1-1-0.1-1.5c0-1.2 1.8-1.2 1.8 0z" />
				</g>
			</g>
			<g id="&lt;Group&gt;">
				<g id="&lt;Group&gt;">
					<path id="&lt;Path&gt;" class="s34" d="m990.8 740.4c1.2 0 1.2-1.7 0-1.7c-1.1 0-1.1 1.7 0 1.7z" />
				</g>
			</g>
			<g id="&lt;Group&gt;">
				<g id="&lt;Group&gt;">
					<path id="&lt;Path&gt;" class="s34" d="m1032.8 758.2c1.3 0 1.3-1.9 0-1.9c-1.2 0-1.2 1.9 0 1.9z" />
				</g>
			</g>
			<g id="&lt;Group&gt;">
				<g id="&lt;Group&gt;">
					<path id="&lt;Path&gt;" class="s34" d="m928.5 843.6c5.7 2.7 11.8 5 17.4 8.1c1 0.6 0.3 2.4-0.8 1.9c-6-2.4-11.7-5.7-17.5-8.5c-1-0.5-0.1-2 0.9-1.5z" />
				</g>
			</g>
			<g id="&lt;Group&gt;">
				<g id="&lt;Group&gt;">
					<path id="&lt;Path&gt;" class="s34" d="m929.9 835.1c1.3 0 1.3-2 0-2c-1.3 0-1.3 2 0 2z" />
				</g>
			</g>
			<g id="&lt;Group&gt;">
				<g id="&lt;Group&gt;">
					<path id="&lt;Path&gt;" class="s34" d="m927.2 873c1.7 0 1.7-2.6 0-2.6c-1.6 0-1.6 2.6 0 2.6z" />
				</g>
			</g>
			<g id="&lt;Group&gt;">
				<g id="&lt;Group&gt;">
					<path id="&lt;Path&gt;" class="s34" d="m897.5 874.1c3.8-2.1 9-1.2 11.6 2.5c2.5 3.7 1.6 9.2-2 11.8c-3.5 2.6-9 1.9-11.8-1.3c-3-3.4-2.9-8.9 0.5-11.9c0.9-0.9 2.1 0.4 1.3 1.3c-2.1 2.6-2.8 6.6-0.5 9.4c2.3 2.6 6.5 3 9.2 0.9c2.7-2.1 3.4-6.3 1.6-9.2c-2-3-6.1-3.7-9.2-2.2c-0.8 0.4-1.6-0.8-0.7-1.3z" />
				</g>
			</g>
			<g id="&lt;Group&gt;">
				<g id="&lt;Group&gt;">
					<path id="&lt;Path&gt;" class="s34" d="m908.4 853.9q0 0.2-0.1 0.4c-0.3 1-1.7 1-2 0q0-0.2-0.1-0.4c-0.6-1.9 2.8-1.9 2.2 0z" />
				</g>
			</g>
			<g id="&lt;Group&gt;">
				<g id="&lt;Group&gt;">
					<path id="&lt;Path&gt;" class="s34" d="m879.2 866.7c-2 5.7-3.5 12-6.2 17.5c-0.5 1-2 0.2-1.8-0.8c1.3-5.8 4.1-11.6 6.1-17.3c0.4-1.2 2.4-0.6 1.9 0.6z" />
				</g>
			</g>
			<g id="&lt;Group&gt;">
				<g id="&lt;Group&gt;">
					<path id="&lt;Path&gt;" class="s34" d="m860 872.1c1.7 0 1.7-2.6 0-2.6c-1.7 0-1.7 2.6 0 2.6z" />
				</g>
			</g>
			<g id="&lt;Group&gt;">
				<g id="&lt;Group&gt;">
					<path id="&lt;Path&gt;" class="s34" d="m834.6 855.1c-0.8 6.2 7 11.2 11.4 5.8c1.9-2.4 1.5-6.3-1.1-8c-2.4-1.5-5.3-0.6-7.2 1.2c-0.7 0.7-2-0.2-1.4-1.1c2.2-3 6.7-3.6 9.7-1.4c2.9 2.1 3.7 6.4 2.1 9.5c-1.8 3.6-6.4 5-10 3.5c-3.8-1.7-5.3-5.8-4.7-9.7c0.1-0.6 1.2-0.5 1.2 0.2z" />
				</g>
			</g>
			<g id="&lt;Group&gt;">
				<g id="&lt;Group&gt;">
					<path id="&lt;Path&gt;" class="s34" d="m804.7 841.9c1.5 5 4 10.4 4.5 15.6c0 0.9-1.3 1.2-1.6 0.5c-2.3-4.7-3.1-10.7-4.4-15.7c-0.3-1 1.2-1.4 1.5-0.4z" />
				</g>
			</g>
			<g id="&lt;Group&gt;">
				<g id="&lt;Group&gt;">
					<path id="&lt;Path&gt;" class="s34" d="m784 850.7c1.4 0 1.4-2.2 0-2.2c-1.4 0-1.4 2.2 0 2.2z" />
				</g>
			</g>
			<g id="&lt;Group&gt;">
				<path id="&lt;Path&gt;" class="s35" d="m764.1 849.1l-20.4-10.9l-3.6 4.2q2 2.7 2.2 5.8c0.2 3-4.2-2.2-6.4-3.2q-2.3-1 4.2-11.4q-12.1 7.6-17.4 7.2q-5.3-0.4 16.6-13.4q-18 7.9-21.7 6.8c-3.7-1 26.4-16.3 29.8-16.8q3.4-0.5 29.4 13.2z" />
				<g id="&lt;Group&gt;">
					<g id="&lt;Group&gt;">
						<path id="&lt;Path&gt;" class="s36" d="m736.2 843.6c0.8-2.3 1.8-4.6 3-6.7c0.6-0.9 1.1-1.9 1.8-2.7q0.4-0.6 1.1-1.1q0.7-1.2 2-0.5c1.1 0.2 1.6 0.4 2.6 0.9c0.7 0.3 1.3-0.6 0.6-1.1c-6.5-4.5-11.1 6-12.1 11c-0.2 0.6 0.7 0.8 1 0.2z" />
					</g>
				</g>
				<g id="&lt;Group&gt;">
					<g id="&lt;Group&gt;">
						<path id="&lt;Path&gt;" class="s36" d="m722 839c5-4 10.2-8.2 15.6-11.6c5.5-3.6 9.9-0.2 16 0c0.6 0.1 0.6 1 0 1c-2.4-0.1-4.4-0.9-6.7-1.3c-6.9-0.9-7.5-0.1-11.6 2.9c-4.3 3.2-8.6 6.4-13 9.5c-0.3 0.2-0.6-0.3-0.3-0.5z" />
					</g>
				</g>
			</g>
		</g>
		<g id="&lt;Group&gt;">
			<path id="&lt;Path&gt;" class="s37" d="m1097.8 381l-5 56.4l-15.5 1.6l-8.8 14.5l-0.9-13.1l-77.5 14q1.5-59.6 1.7-61.2z" />
			<text id="Js
" style="transform: matrix(2.958,-0.503,.503,2.958,1024.338,434.03)" >
				<tspan x="0" y="0" class="t38">JS
</tspan>
			</text>
		</g>
		<g id="&lt;Group&gt;">
			<path id="&lt;Path&gt;" class="s39" d="m353.2 435.4v56.6l-15.2 2.9l-7.5 15.3l-2.1-13l-76 20.8q-3.7-59.5-3.7-61.1z" />
			<text id="Css
" style="transform: matrix(2.924,-0.67,.67,2.924,274.324,495.356)" >
				<tspan x="0" y="0" class="t21">CSS
</tspan>
			</text>
		</g>
		<g id="&lt;Group&gt;">
			<path id="&lt;Path&gt;" class="s8" d="m638.9 746.5l85.1 13.1q-34.7 8.3-81 17.9q-46.2 9.6-93.9-4.6z" />
			<g id="&lt;Group&gt;">
				<path id="&lt;Path&gt;" class="s40" d="m851.1 682.5l-375.1 78.3l-58.8-277.6l390.7-64.1z" />
				<path id="&lt;Path&gt;" class="s41" d="m843.4 660l-366.3 74.9l-53.3-245.6l381.3-62.6z" />
				<g id="&lt;Group&gt;">
					<path id="&lt;Path&gt;" class="s18" d="m510.1 538.8l-40.3 7.3l-1-5.6l40.3-7.3z" />
					<path id="&lt;Path&gt;" class="s18" d="m730.8 515.7l-40.3 7.3l-1-5.6l40.3-7.3z" />
					<path id="&lt;Path&gt;" class="s23" d="m658.5 512.9l-126.5 23l-1.1-6.1l126.5-22.9z" />
					<path id="&lt;Path&gt;" class="s18" d="m681 525.4l-93.7 17l-1.1-6l93.7-17z" />
					<path id="&lt;Path&gt;" class="s23" d="m791.8 522.9l-173.3 31.4l-1.2-6.3l173.3-31.5z" />
					<path id="&lt;Path&gt;" class="s18" d="m530.2 610.9l-40.4 7.4l-1-5.6l40.3-7.4z" />
					<path id="&lt;Path&gt;" class="s18" d="m779.1 651.9l-40.3 7.3l-1.1-5.6l40.4-7.3z" />
					<path id="&lt;Path&gt;" class="s18" d="m750.9 587.9l-40.3 7.3l-1.1-5.6l40.4-7.3z" />
					<path id="&lt;Path&gt;" class="s23" d="m678.5 585.1l-126.4 22.9l-1.1-6l126.4-23z" />
					<path id="&lt;Path&gt;" class="s18" d="m701 597.6l-93.7 16.9l-1.1-6l93.7-17z" />
					<path id="&lt;Path&gt;" class="s23" d="m811.8 595l-173.3 31.5l-1.1-6.4l173.3-31.4z" />
					<path id="&lt;Path&gt;" class="s18" d="m632.8 495.6l-173.3 31.4l-1.2-6.4l173.3-31.4z" />
					<path id="&lt;Path&gt;" class="s23" d="m675.5 649.9l-173.3 31.5l-1.1-6.4l173.2-31.4z" />
					<path id="&lt;Path&gt;" class="s18" d="m645.9 677.2l-139.8 25.4l-1.2-6.4l139.8-25.3z" />
					<path id="&lt;Path&gt;" class="s23" d="m731.4 661.6l-76.6 13.9l-1.1-6.3l76.5-13.9z" />
				</g>
				<g id="&lt;Group&gt;">
					<g id="&lt;Group&gt;">
						<path id="&lt;Path&gt;" class="s14" d="m424.7 489q1 4.8 2.1 9.6q16.3 75.4 32.6 150.7q7.5 34.4 14.9 68.8c0.8 3.6 1 12.7 3.4 15.6c1.4 1.6-1.8-0.4-0.3 0.2c0.7 0.2 2.7-0.5 3.4-0.7c96.3-18.5 192.2-39.3 288.3-59q29.1-5.9 58.1-11.8c4-0.9 10.4-0.9 14-2.9c2.9-1.6 0.8 2.2 0.8-2.3c-0.1-17.6-6.1-37.1-8.9-54.4q-7.1-43.5-14.3-86.9q-5.8-35.7-11.7-71.4c-0.6-3.9-0.3-13.2-2.7-16.5c-1.2-1.7 1.6 0.2 0.5-0.3c-0.7-0.3-2.7 0.4-3.4 0.5c-38.8 5.4-77.4 12.7-116.1 19.1q-130.7 21.4-261.4 42.8c-1.1 0.2-1.6-1.5-0.4-1.7q23.9-3.9 47.9-7.9q166.7-27.3 333.4-54.6c0.4-0.1 1 0.1 1.1 0.6q19.1 116.6 38.2 233.2c0.1 0.5-0.1 1-0.6 1.1q-22.5 4.6-45.1 9.3q-160.6 32.8-321.2 65.7c-0.5 0.1-1-0.2-1.1-0.7q-26.6-122.8-53.3-245.6c-0.2-1.1 1.5-1.6 1.8-0.5z" />
					</g>
				</g>
				<path id="&lt;Path&gt;" class="s10" d="m719.5 709.9l10.6 48.3q-85.6 20.8-87.1 19.3q-1.4-1.5-11.1-48.9z" />
				<g id="&lt;Group&gt;">
					<g id="&lt;Group&gt;">
						<path id="&lt;Path&gt;" class="s14" d="m730.5 711.3c11.7 32.5 54.6-4.8 73.6-11.3c20.2-6.8 41.8-8.1 62.6-3.8c1.1 0.2 0.7 1.8-0.4 1.6c-19.2-3.2-38.3-3.1-57.1 2.4c-15.6 4.6-27.6 13.5-41.7 20.8c-12.9 6.6-33.7 8.1-37.9-9.5c-0.1-0.6 0.7-0.8 0.9-0.2z" />
					</g>
				</g>
				<path id="&lt;Path&gt;" class="s18" d="m971.2 504.5l-212.2 38.5l-24.8-136.6l212.2-38.5z" />
				<g id="&lt;Group&gt;">
					<path id="&lt;Path&gt;" class="s42" d="m804.1 451.8l-40.3 7.3l-1.1-5.6l40.4-7.3z" />
					<path id="&lt;Path&gt;" class="s42" d="m815.7 498l-40.3 7.3l-1-5.6l40.3-7.3z" />
					<path id="&lt;Path&gt;" class="s42" d="m933.9 476.3l-110 20l-1.1-5.9l110-20z" />
					<path id="&lt;Path&gt;" class="s42" d="m884.7 413.7l-126.4 22.9l-1.1-6l126.4-23z" />
					<path id="&lt;Path&gt;" class="s42" d="m896.6 459.3l-126.4 23l-1.1-6.1l126.4-22.9z" />
				</g>
				<path id="&lt;Path&gt;" class="s43" d="m737.9 426.7l21.1 116.3l67.2-12.1l3.5 17.4l-78.2 16l-31-130.9z" />
				<path id="&lt;Path&gt;" class="s44" d="m643 777.5l-46.7-12.5l40.8-11.9z" />
				<g id="&lt;Group&gt;">
					<g id="&lt;Group&gt;">
						<path id="&lt;Path&gt;" class="s14" d="m673.8 713.6c-3 0.1-5-2.5-5.3-5.3q0-0.1 0-0.2c-0.2-2.9 2.6-5.1 5.3-5.3c2.6-0.1 5.5 2.6 5.2 5.3q0 0.1 0 0.2c-0.2 3-2.2 5.1-5.2 5.3z" />
					</g>
				</g>
			</g>
		</g>
		<g id="&lt;Group&gt;">
			<path id="&lt;Path&gt;" class="s28" d="m469.5 516.5v56.6l-15.3 2.9l-7.4 15.2l-2.1-12.9l-76 20.8q-3.8-59.5-3.8-61.2z" />
			<text id="HTML" style="transform: matrix(2.945,-0.574,.574,2.945,381.657,576.138)" >
				<tspan x="0" y="0" class="t21">H</tspan><tspan  y="0" class="t21">T</tspan><tspan  y="0" class="t21">M</tspan><tspan  y="0" class="t21">L
</tspan>
			</text>
		</g>
	</g>
</svg>